<svg width="23" height="23" viewBox="0 0 23 23" fill="none" xmlns="http://www.w3.org/2000/svg">
<g clip-path="url(#clip0)">
<path d="M22.0894 5.07483L11.6465 0.0334282C11.5539 -0.0112241 11.4461 -0.0112241 11.3536 0.0334282L0.910639 5.07483C0.794201 5.13103 0.720215 5.24895 0.720215 5.37823V17.6216C0.720215 17.7509 0.794201 17.8689 0.910639 17.925L11.3535 22.9664C11.3998 22.9888 11.4499 23 11.5 23C11.5501 23 11.6002 22.9888 11.6465 22.9664L22.0894 17.925C22.2059 17.8689 22.2798 17.7509 22.2798 17.6216V5.37828C22.2798 5.2489 22.2058 5.13107 22.0894 5.07483ZM11.5 0.710985L21.168 5.37823L18.3654 6.73119C18.3477 6.71767 18.329 6.70518 18.3084 6.69525L8.70611 2.05976L11.5 0.710985ZM7.94523 2.4407L17.5991 7.10117L15.6219 8.05571L5.97199 3.39713L7.94523 2.4407ZM17.825 7.74032V11.2687L15.9781 12.1604V8.63192L17.825 7.74032ZM21.606 17.4102L11.8369 22.1262V10.6311L14.1672 9.50615C14.3347 9.42524 14.405 9.22386 14.3241 9.05626C14.2432 8.88874 14.0418 8.8184 13.8742 8.89934L11.5 10.0455L10.5658 9.59451C10.3982 9.51352 10.1968 9.58386 10.1159 9.75142C10.035 9.91898 10.1053 10.1204 10.2729 10.2013L11.1631 10.6311V22.1262L1.39404 17.4102V5.915L8.83311 9.50628C8.88032 9.5291 8.93023 9.53989 8.97933 9.53989C9.10457 9.53989 9.22487 9.46972 9.28295 9.34937C9.36386 9.18181 9.2936 8.98038 9.12604 8.89948L1.83208 5.37823L5.17898 3.76248L15.2996 8.64832C15.3011 8.65039 15.3028 8.65223 15.3043 8.65425V12.6972C15.3043 12.8131 15.3639 12.9209 15.4621 12.9826C15.5166 13.0168 15.5788 13.0341 15.6412 13.0341C15.6912 13.0341 15.7413 13.023 15.7877 13.0006L18.3084 11.7837C18.4248 11.7275 18.4988 11.6096 18.4988 11.4803V7.41508L21.606 5.91505V17.4102Z" fill="#8A6551"/>
<path d="M4.17444 16.1035L2.64193 15.3637C2.47428 15.2827 2.27294 15.3531 2.19204 15.5206C2.11113 15.6882 2.18139 15.8896 2.34895 15.9705L3.88146 16.7103C3.92867 16.7331 3.97858 16.7439 4.02768 16.7439C4.15292 16.7439 4.27322 16.6738 4.33131 16.5534C4.41226 16.3858 4.342 16.1845 4.17444 16.1035Z" fill="#8A6551"/>
<path d="M5.58491 15.1855L2.6441 13.7658C2.4765 13.6849 2.27511 13.7551 2.19421 13.9227C2.11335 14.0903 2.1836 14.2917 2.35116 14.3726L5.29197 15.7923C5.33919 15.8151 5.38909 15.8259 5.43819 15.8259C5.56344 15.8259 5.68374 15.7558 5.74182 15.6354C5.82273 15.4678 5.75247 15.2663 5.58491 15.1855Z" fill="#8A6551"/>
</g>
<defs>
<clipPath id="clip0">
<rect width="23" height="23" fill="white"/>
</clipPath>
</defs>
</svg>
