<svg width="114" height="11" viewBox="0 0 114 11" fill="none" xmlns="http://www.w3.org/2000/svg">
<path d="M59 7.91448C59.5599 8.0187 76.1438 10.9901 83.0411 7.91448C90.1726 4.73054 84.6135 0.148766 78.6732 4.73053C78.6732 4.73053 76.6878 2.07385 81.8499 1.24619C87.0119 0.418525 90.5677 2.58475 90.1706 5.28639C90.1706 5.28639 102.367 -2.44253 110.205 0.790459C118.044 4.02345 111.702 7.1563 109.236 7.76121C106.77 8.36611 101.047 8.21693 99.905 6.5003C99.905 6.5003 109.435 7.37905 110.749 5.19648C112.064 3.0139 106.421 0.291822 100.256 3.31636C94.0918 6.3409 79.9141 15.8437 59 7.91448Z" fill="#8A6551"/>
<path d="M55 7.91448C54.4401 8.0187 37.8562 10.9901 30.9589 7.91448C23.8274 4.73054 29.3865 0.148766 35.3268 4.73053C35.3268 4.73053 37.3122 2.07385 32.1501 1.24619C26.9881 0.418525 23.4323 2.58475 23.8294 5.28639C23.8294 5.28639 11.6331 -2.44253 3.79481 0.790459C-4.04351 4.02345 2.29783 7.1563 4.76368 7.76121C7.22954 8.36611 12.9534 8.21693 14.095 6.5003C14.095 6.5003 4.56513 7.37905 3.2508 5.19648C1.93647 3.0139 7.57896 0.291822 13.7436 3.31636C19.9082 6.3409 34.0859 15.8437 55 7.91448Z" fill="#8A6551"/>
</svg>
