<svg width="25" height="25" viewBox="0 0 25 25" fill="none" xmlns="http://www.w3.org/2000/svg">
<path d="M20.4388 16.4401C19.8279 16.4401 19.2476 16.6793 18.8098 17.1121C18.372 17.5498 18.1277 18.12 18.1277 18.7309C18.1277 19.3417 18.3669 19.9119 18.8098 20.3497C19.2527 20.7824 19.8279 21.0216 20.4388 21.0216C21.6911 21.0216 22.7092 19.9933 22.7092 18.7309C22.7092 17.4684 21.6911 16.4401 20.4388 16.4401ZM20.4388 20.0035C19.7363 20.0035 19.1458 19.4232 19.1458 18.7309C19.1458 18.0385 19.7363 17.4582 20.4388 17.4582C21.1311 17.4582 21.6911 18.0284 21.6911 18.7309C21.6911 19.4334 21.1311 20.0035 20.4388 20.0035ZM21.0293 8.80926C20.9377 8.72272 20.8155 8.67691 20.6883 8.67691H18.0768C17.7968 8.67691 17.5677 8.90598 17.5677 9.18597V13.3603C17.5677 13.6403 17.7968 13.8693 18.0768 13.8693H22.2205C22.5005 13.8693 22.7296 13.6403 22.7296 13.3603V10.5655C22.7296 10.423 22.6685 10.2855 22.5616 10.1888L21.0293 8.80926ZM21.7115 12.8512H18.5858V9.68994H20.4897L21.7115 10.7895V12.8512ZM8.00753 16.4401C7.39666 16.4401 6.81633 16.6793 6.37854 17.1121C5.94075 17.5498 5.6964 18.12 5.6964 18.7309C5.6964 19.3417 5.93565 19.9119 6.37854 20.3497C6.82142 20.7824 7.39666 21.0216 8.00753 21.0216C9.25982 21.0216 10.2779 19.9933 10.2779 18.7309C10.2779 17.4684 9.25982 16.4401 8.00753 16.4401ZM8.00753 20.0035C7.30503 20.0035 6.71452 19.4232 6.71452 18.7309C6.71452 18.0385 7.30503 17.4582 8.00753 17.4582C8.69986 17.4582 9.25982 18.0284 9.25982 18.7309C9.25982 19.4334 8.69986 20.0035 8.00753 20.0035ZM4.6121 17.0662H3.58888V15.7121C3.58888 15.4321 3.3598 15.2031 3.07982 15.2031C2.79984 15.2031 2.57076 15.4321 2.57076 15.7121V17.5753C2.57076 17.8553 2.79984 18.0844 3.07982 18.0844H4.6121C4.89208 18.0844 5.12116 17.8553 5.12116 17.5753C5.12116 17.2953 4.89208 17.0662 4.6121 17.0662ZM7.19304 14.2919C7.19304 14.0119 6.96396 13.7828 6.68397 13.7828H0.509061C0.229078 13.7828 0 14.0119 0 14.2919C0 14.5718 0.229078 14.8009 0.509061 14.8009H6.68397C6.96396 14.8009 7.19304 14.5769 7.19304 14.2919ZM1.54246 12.4541L7.71737 12.4898C7.99735 12.4898 8.22643 12.2658 8.23152 11.9858C8.23661 11.7007 8.00753 11.4717 7.72755 11.4717L1.55264 11.436C1.54755 11.436 1.54755 11.436 1.54755 11.436C1.26756 11.436 1.03849 11.66 1.03849 11.94C1.03339 12.2251 1.26247 12.4541 1.54246 12.4541ZM2.58094 10.143H8.75585C9.03584 10.143 9.26492 9.91392 9.26492 9.63394C9.26492 9.35396 9.03584 9.12488 8.75585 9.12488H2.58094C2.30096 9.12488 2.07188 9.35396 2.07188 9.63394C2.07188 9.91392 2.30096 10.143 2.58094 10.143ZM24.8116 9.45577L21.1668 6.43704C21.0751 6.36068 20.9631 6.31995 20.841 6.31995H16.5547V4.48733C16.5547 4.20735 16.3256 3.97827 16.0456 3.97827H3.07982C2.79984 3.97827 2.57076 4.20735 2.57076 4.48733V8.21366C2.57076 8.49365 2.79984 8.72272 3.07982 8.72272C3.3598 8.72272 3.58888 8.49365 3.58888 8.21366V4.99639H15.5416V17.0662H11.3673C11.0874 17.0662 10.8583 17.2953 10.8583 17.5753C10.8583 17.8553 11.0874 18.0844 11.3673 18.0844H17.583C17.863 18.0844 18.092 17.8553 18.092 17.5753C18.092 17.2953 17.863 17.0662 17.583 17.0662H16.5598V7.33808H20.6628L23.9819 10.087L23.9462 17.0561H23.4168C23.1368 17.0561 22.9078 17.2851 22.9078 17.5651C22.9078 17.8451 23.1368 18.0742 23.4168 18.0742H24.4502C24.7302 18.0742 24.9593 17.8502 24.9593 17.5702L25 9.85284C24.9949 9.70012 24.9287 9.55249 24.8116 9.45577Z" fill="#8A6551"/>
</svg>
