<svg width="245" height="246" viewBox="0 0 245 246" fill="none" xmlns="http://www.w3.org/2000/svg">
<path fill-rule="evenodd" clip-rule="evenodd" d="M14.6702 123.691V230.957H121.495C219.25 230.957 228.333 230.924 228.471 230.564C228.664 230.06 228.658 17.3071 228.465 16.8035C228.335 16.4639 217.486 16.4258 121.495 16.4258H14.6702V123.691ZM222.253 19.8492C222.451 19.9739 222.561 20.1299 222.498 20.195C222.434 20.2601 217.101 25.6451 210.646 32.1609L198.909 44.0083H121.554H44.1994L36.0121 35.6721C31.5096 31.0873 26.2268 25.7207 24.2729 23.7467C22.2082 21.6604 20.7909 20.0433 20.8889 19.8842C21.1039 19.536 221.701 19.5003 222.253 19.8492ZM36.2038 40.5861L42.2994 46.7266L42.2982 123.383C42.2976 168.592 42.2063 200.28 42.0753 200.625C41.6471 201.754 18.257 225.166 18.0597 224.664C17.8368 224.096 17.7909 23.2376 18.0132 22.6553C18.1443 22.3145 19.4103 23.4882 24.1431 28.3358C27.4243 31.6966 32.8516 37.2094 36.2038 40.5861ZM225.194 123.651C225.194 179.253 225.12 224.82 225.029 224.912C224.938 225.003 219.497 219.643 212.938 213L201.012 200.923L201 123.706L200.988 46.4896L212.9 34.5224C219.452 27.9403 224.899 22.5552 225.003 22.5552C225.109 22.5552 225.194 68.0477 225.194 123.651ZM126.391 27.0909C126.38 27.495 126.322 28.1295 126.261 28.5004C126.105 29.4542 126.499 29.3382 126.865 28.3223C127.196 27.4047 128.383 26.8336 129.601 27.0055L130.202 27.0909L130.268 31.8164C130.338 36.7494 130.213 37.511 129.338 37.511C129.073 37.511 128.857 37.6209 128.857 37.756C128.857 37.9022 129.79 38.0011 131.165 38.0011C132.44 38.0011 133.541 37.8918 133.625 37.756C133.711 37.6166 133.503 37.511 133.144 37.511C132.182 37.511 132.036 36.7488 132.036 31.7377V27.2229L132.669 27.0633C133.806 26.7771 135.068 27.3458 135.576 28.3733C136.115 29.4616 136.335 29.0268 136.087 27.3685L135.936 26.3551H131.174H126.412L126.391 27.0909ZM142.284 26.4552C138.744 27.597 138.817 30.8208 142.43 32.9298C144.758 34.289 145.273 35.1421 144.657 36.6204C143.947 38.3229 141.622 38.0607 140.41 36.1414C139.41 34.5586 139.152 35.0187 139.763 37.2899C140.011 38.2068 142.815 38.5047 144.403 37.7812C147.384 36.4239 147.218 33.517 144.053 31.6315C141.142 29.8971 140.471 28.5391 141.911 27.2973C142.946 26.4049 143.698 26.548 144.926 27.8709L145.993 29.0194L145.829 27.9323C145.739 27.3347 145.597 26.7697 145.514 26.6769C145.259 26.3957 142.959 26.2372 142.284 26.4552ZM96.826 26.6837C96.826 26.7967 97.0851 27.008 97.4024 27.1529C98.7848 27.7843 98.7033 37.0755 97.3117 37.4403C96.1768 37.7382 96.981 38.0011 99.0267 38.0011C101.241 38.0011 101.694 37.8322 100.677 37.3851C100.159 37.1572 100.127 36.9987 100.127 34.6913V32.2395L102.62 32.1695C105.604 32.0866 105.606 32.0884 105.505 34.8798C105.437 36.7647 105.151 37.511 104.498 37.511C104.313 37.511 104.161 37.6209 104.161 37.756C104.161 37.9016 105.058 38.0011 106.362 38.0011C108.576 38.0011 109.029 37.8322 108.012 37.3851C107.472 37.1474 107.461 37.0577 107.396 32.2911L107.33 27.4391L108.072 27.1259C109.19 26.6548 108.712 26.478 106.321 26.478C104.31 26.478 103.519 26.7427 104.647 27.0387C105.307 27.2113 105.554 28.0158 105.528 29.9106L105.506 31.5037L102.755 31.5731L100.004 31.6425V29.5451C100.004 27.546 100.033 27.4348 100.616 27.1689C101.709 26.6696 101.268 26.478 99.0267 26.478C97.8164 26.478 96.826 26.5707 96.826 26.6837ZM116.917 27.7653C114.014 35.502 113.062 37.511 112.3 37.511C112.111 37.511 112.025 37.6209 112.108 37.756C112.282 38.0398 115.409 38.0944 115.409 37.8144C115.409 37.7112 115.161 37.5183 114.859 37.3851C114.233 37.1099 114.223 36.3539 114.825 34.9087L115.18 34.0581L117.067 34.1293L118.954 34.2012L119.422 35.6457C119.857 36.9883 119.861 37.1124 119.483 37.3894C118.779 37.9053 119.022 38.0011 121.033 38.0011C122.885 38.0011 123.557 37.7247 122.512 37.3924C122.191 37.2899 121.792 36.5897 121.281 35.2305C120.865 34.125 120.375 32.834 120.19 32.3624C120.007 31.8901 119.446 30.373 118.946 28.9912C117.909 26.1236 117.603 25.9387 116.917 27.7653ZM117.935 31.3078C118.629 33.3665 118.64 33.3426 116.998 33.3426C115.39 33.3426 115.37 33.3137 115.904 31.7942C117.033 28.5809 117.016 28.5846 117.935 31.3078ZM119.932 84.7077V121.975H82.7667H45.6008L45.5383 84.9528C45.5034 64.5911 45.5279 47.7928 45.5916 47.6239C45.6847 47.3789 53.2595 47.3291 82.8206 47.3783L119.932 47.4409V84.7077ZM197.571 47.947C197.836 48.6472 197.916 119.039 197.653 120.96L197.498 122.097H160.488H123.478V84.8711C123.478 64.397 123.551 47.5711 123.641 47.4815C123.73 47.3918 140.348 47.3181 160.568 47.3181H197.332L197.571 47.947ZM209.056 53.6643C209.056 53.7835 209.269 53.9364 209.528 54.0046C210.128 54.1618 210.176 54.6747 210.085 59.8939L210.012 64.0107L209.351 64.3067C208.27 64.7913 213.633 64.8521 215.272 64.3743C218.227 63.5132 218.784 59.0869 215.938 59.0869C214.961 59.0869 214.904 58.5206 215.828 57.9992C217.604 56.9968 217.645 54.7496 215.903 53.8768C214.974 53.4119 209.056 53.2277 209.056 53.6643ZM214.667 54.4714C215.375 55.2323 215.538 56.4171 215.064 57.3371C214.67 58.1005 214.214 58.3235 212.846 58.4211L212.113 58.4739L212.043 56.2058L211.972 53.9376H213.072C213.887 53.9376 214.3 54.0764 214.667 54.4714ZM214.685 59.4572C216.908 60.61 215.934 64.2355 213.4 64.2355C212.151 64.2355 211.991 63.9124 211.991 61.4078C211.991 58.6213 212.442 58.294 214.685 59.4572ZM60.7265 64.8484C60.4325 65.6162 60.8367 65.9079 62.4348 66.0792C66.5863 66.5251 66.3842 65.5418 66.3842 85.3207C66.3842 105.15 66.6622 103.71 62.7165 104.317C61.0303 104.576 61.004 104.592 60.9286 105.37L60.8521 106.161H69.0583H77.2652V105.338V104.515L75.7542 104.356C71.8023 103.942 71.7815 103.887 71.6902 93.593L71.6174 85.3158L82.5713 85.3796L93.5253 85.4435V93.6568C93.5253 103.885 93.5412 103.839 89.7351 104.313C87.6465 104.573 87.4964 104.647 87.5816 105.385L87.6569 106.039L96.031 106.103L104.406 106.168V105.341V104.515L102.94 104.361C98.6335 103.91 98.9042 105.186 98.9042 85.3207C98.9042 65.5167 98.6598 66.7561 102.684 66.1321C104.347 65.8735 104.406 65.8409 104.406 65.1727V64.4805H96.3366H88.2682V65.1844C88.2682 65.8489 88.3404 65.8981 89.552 66.059C93.4732 66.5792 93.6827 67.1074 93.5902 76.2647L93.5253 82.7467H82.6442H71.7637V75.6364C71.7637 66.702 71.7993 66.616 75.737 66.0805C76.951 65.9153 77.0208 65.8667 77.0208 65.193V64.4805H68.9438C61.9907 64.4805 60.8478 64.5315 60.7265 64.8484ZM144.75 65.166C144.75 65.8551 144.806 65.8907 146.113 66.0448C150.265 66.5343 150.007 65.279 150.007 84.9528C150.007 104.926 150.25 103.68 146.244 104.299L144.384 104.585L144.305 105.398L144.226 106.21L153.474 106.098C163.032 105.981 164.18 105.873 167.612 104.77C173.501 102.876 176.706 98.8134 176.474 93.534C176.257 88.5911 173.742 85.8673 167.97 84.3233C165.679 83.7097 165.217 83.4591 165.92 83.2091C167.868 82.5182 170.097 81.2659 171.169 80.2599C175.194 76.4846 174.614 68.9591 170.095 66.336C167.228 64.6722 166.93 64.6359 155.325 64.5377L144.75 64.448V65.166ZM162.542 66.546C166.835 67.6921 169.099 71.6522 168.225 76.4882C167.336 81.3973 163.492 83.3848 155.814 82.9033L155.264 82.8689V75.5295C155.264 71.4932 155.367 67.9187 155.492 67.587C155.96 66.355 159.737 65.7973 162.542 66.546ZM212.07 74.7925C205.637 76.0442 205.852 85.5682 212.333 86.4587C215.999 86.9624 218.916 84.2182 218.885 80.2949C218.856 76.6424 215.691 74.0881 212.07 74.7925ZM26.1625 75.0234C26.1625 75.1579 26.3236 75.2685 26.5202 75.2685C27.2283 75.2685 27.3851 76.2229 27.3851 80.54C27.3851 85.0418 27.2387 85.8114 26.3836 85.8114C26.1117 85.8114 25.9567 85.9213 26.04 86.0565C26.2287 86.3623 29.4308 86.3672 31.5164 86.0651C35.2661 85.5215 36.4445 82.1522 33.4023 80.6757C32.2685 80.1254 31.9402 79.6819 32.666 79.6819C34.8245 79.6819 34.9078 76.0344 32.7683 75.1764C31.6297 74.7194 26.1625 74.5929 26.1625 75.0234ZM214.359 75.4294C217.627 76.9839 217.699 84.86 214.454 85.8347C211.591 86.6946 209.484 84.276 209.497 80.1438C209.508 76.3163 211.719 74.1728 214.359 75.4294ZM31.8049 75.9852C33.3281 77.5127 32.5031 79.7569 30.4071 79.787L29.2189 79.8042L29.1466 78.0304C29.0327 75.2009 30.1585 74.3343 31.8049 75.9852ZM32.1479 81.0497C33.2069 81.7456 33.2804 84.2864 32.2679 85.2046C31.4839 85.9158 29.8099 85.8403 29.4179 85.0756C29.0817 84.4203 28.9733 80.8698 29.2795 80.5571C29.5576 80.274 31.4655 80.6014 32.1479 81.0497ZM164.211 85.6714C168.576 87.0545 170.499 89.7532 170.512 94.5149C170.528 100.652 166.954 104.07 160.521 104.071C155.511 104.072 155.408 103.854 155.313 93.0666L155.24 84.7532L158.757 84.9055C161.527 85.0253 162.684 85.188 164.211 85.6714ZM28.9739 96.3236C22.3405 98.0703 23.4914 107.993 30.3232 107.957C37.6922 107.919 38.2986 96.7523 30.9602 96.221C30.2712 96.1713 29.3775 96.2173 28.9739 96.3236ZM207.345 96.541C207.345 96.6436 207.589 96.837 207.887 96.9697C208.636 97.3044 208.76 97.9512 208.787 101.695C208.825 106.626 209.718 107.98 212.935 107.976C216.292 107.972 217.289 106.539 217.508 101.41C217.677 97.4703 217.735 97.1619 218.348 96.9666C219.358 96.6448 218.777 96.3537 217.125 96.3537C216.147 96.3537 215.414 96.4587 215.414 96.5987C215.414 96.7339 215.573 96.8444 215.767 96.8444C217.378 96.8444 217.353 104.925 215.737 106.447C214.249 107.849 211.447 107.022 210.791 104.988C210.23 103.247 210.532 97.2621 211.196 96.9697C212.212 96.5226 211.76 96.3537 209.546 96.3537C208.335 96.3537 207.345 96.4378 207.345 96.541ZM31.6487 96.9758C34.223 98.2011 34.9078 104.376 32.7187 106.622C30.2883 109.114 26.6935 106.367 26.6635 101.993C26.6354 97.9898 28.9286 95.6818 31.6487 96.9758ZM28.2713 118.044C24.4022 119.428 23.2684 124.988 26.2666 127.877C29.3438 130.843 34.9102 129.418 35.9172 125.407C37.1814 120.374 33.0047 116.352 28.2713 118.044ZM208.996 118.417L209.79 118.903L209.786 123.504C209.782 128.38 209.75 128.557 208.805 128.935C208.347 129.118 208.793 129.177 210.646 129.177C212.499 129.177 212.944 129.118 212.486 128.935C211.615 128.586 211.509 128.306 211.505 126.341C211.499 123.461 212.552 123.522 214.278 126.501C215.53 128.662 216.014 129.08 217.553 129.329C218.742 129.52 218.849 129.358 217.984 128.676C217.435 128.243 214.925 124.437 214.925 124.037C214.925 123.946 215.365 123.43 215.903 122.891C217.206 121.584 217.307 119.997 216.156 118.918C215.241 118.061 214.558 117.93 211.043 117.93L208.201 117.931L208.996 118.417ZM31.9359 118.642C34.2904 120.082 34.7351 126.054 32.6446 128.151C30.1003 130.702 26.7738 127.966 26.7738 123.323C26.7738 119.2 29.2207 116.982 31.9359 118.642ZM213.702 118.617C216.215 119.845 215.179 123.814 212.346 123.814H211.501V121.252C211.501 118.078 211.82 117.697 213.702 118.617ZM119.932 162.797V199.942H82.7667H45.6008L45.5383 163.042C45.5034 142.748 45.5279 126.005 45.5916 125.836C45.6847 125.591 53.2595 125.541 82.8206 125.591L119.932 125.653V162.797ZM197.661 125.918C197.858 126.434 197.848 197.126 197.65 198.778L197.497 200.065H160.487H123.478V162.961C123.478 142.554 123.551 125.784 123.641 125.693C124.042 125.29 197.506 125.513 197.661 125.918ZM25.5751 139.407C25.365 139.956 25.3938 141.957 25.6119 141.955C25.7129 141.953 25.9824 141.506 26.2103 140.961L26.6256 139.97L28.0447 140.044L29.4633 140.118L29.5349 144.286C29.6225 149.357 29.5337 149.973 28.6554 150.361C27.8965 150.695 29.4418 150.883 31.7332 150.736L32.8865 150.661L32.1528 150.29L31.419 149.919L31.3528 144.958C31.3014 141.084 31.3553 139.99 31.5978 139.971C33.5382 139.816 34.4012 140.131 34.724 141.111C35.1693 142.465 35.5111 142.141 35.3182 140.547C35.116 138.872 35.1369 138.905 34.5127 139.24C33.8892 139.575 26.7873 139.596 26.1705 139.265C25.8336 139.084 25.686 139.119 25.5751 139.407ZM209.47 139.94C210.116 140.45 210.12 140.497 210.072 145.811L210.034 150.032L209.362 150.398C208.356 150.946 213.86 150.951 215.462 150.403C218.4 149.399 218.746 146.296 216.035 145.258C214.728 144.757 214.667 144.576 215.668 144.16C217.765 143.289 217.631 140.364 215.468 139.762C213.763 139.287 208.83 139.434 209.47 139.94ZM214.667 140.529C215.927 141.885 215.4 143.95 213.675 144.416C212.084 144.846 211.991 144.723 211.991 142.21V139.996H213.082C213.886 139.996 214.302 140.135 214.667 140.529ZM73.7164 140.913C66.1116 143.635 64.3108 151.646 69.8956 157.911C71.3203 159.509 71.4122 159.278 68.4624 161.514C62.9756 165.675 61.7549 167.56 61.7592 171.869C61.7714 184.762 78.7658 187.495 86.6169 175.866C87.3898 174.722 87.5387 174.812 90.5491 178.244C93.5295 181.64 94.4685 182.294 97.5763 183.136C99.7256 183.719 100.982 183.785 100.982 183.315C100.982 182.512 96.3636 176.423 93.042 172.85C90.4762 170.089 90.5944 170.299 91.1567 169.497C91.4238 169.116 92.8968 166.874 94.4305 164.513C98.4357 158.35 99.0243 157.782 102.146 157.071C103.462 156.772 103.55 156.707 103.55 156.035V155.319H96.4591H89.3682V156.035C89.3682 156.716 89.4472 156.769 91.0165 157.138C94.5163 157.962 94.4857 159.455 90.8309 166.194C89.261 169.089 89.6573 169.129 86.0313 165.715C84.3702 164.151 81.9931 161.957 80.7491 160.84C78.0357 158.403 78.0455 158.834 80.6652 156.956C84.9423 153.891 86.1557 152.109 86.1348 148.92C86.0975 143.076 79.5204 138.836 73.7164 140.913ZM144.75 141.909C144.75 142.62 144.799 142.651 146.346 142.921C150.265 143.605 149.992 142.287 150.079 160.953C150.17 180.606 150.17 180.604 147.044 181.043C144.232 181.438 144.261 181.425 144.261 182.214V182.942L153.613 182.84C165.349 182.711 168.273 182.176 171.891 179.499C175.282 176.99 176.417 174.764 176.407 170.648C176.394 165.486 173.752 162.598 167.615 161.04C165.094 160.4 165.075 160.319 167.253 159.485C175.153 156.457 176.346 146.348 169.233 142.709C166.81 141.469 166.08 141.396 155.081 141.283L144.75 141.177V141.909ZM77.6321 142.474C82.6099 143.846 83.0031 152.278 78.2826 156.444C76.8702 157.691 76.7072 157.667 74.776 155.919C68.5567 150.292 70.6269 140.545 77.6321 142.474ZM161.915 143.213C166.574 144.205 169.127 148.254 168.226 153.222C167.37 157.944 164.283 159.835 157.403 159.851L155.264 159.855V152.288C155.264 145.053 155.286 144.692 155.761 144.087C156.569 143.057 159.333 142.664 161.915 143.213ZM214.707 145.53C217.182 146.798 215.276 151.437 212.774 150.237C212.133 149.93 212.111 149.849 212.042 147.614C211.954 144.743 212.435 144.367 214.707 145.53ZM29.5221 160.933C26.1441 162.17 26.3512 165.053 29.9796 167.291C32.4817 168.834 32.9564 169.953 31.7583 171.481C30.676 172.861 28.1807 171.825 27.5241 169.723C27.2387 168.81 26.8601 169.087 27.0212 170.091C27.3471 172.125 27.2975 172.059 28.754 172.386C33.9045 173.542 36.0091 168.551 31.4857 165.907C29.4406 164.712 28.7705 163.996 28.7705 163.006C28.7705 160.844 31.9078 160.479 32.7591 162.541C33.205 163.62 33.529 163.458 33.3471 162.246C33.1193 160.731 31.5488 160.192 29.5221 160.933ZM212.02 160.868C206.046 161.973 205.78 171.069 211.683 172.394C216.066 173.378 219.676 169.773 218.782 165.305C218.156 162.183 215.245 160.273 212.02 160.868ZM76.2007 163.584C82.1034 168.746 86.1575 172.958 85.8249 173.582C83.5146 177.91 76.0335 180.51 71.8856 178.426C65.3956 175.165 65.0575 166.729 71.2198 161.809C72.8307 160.523 72.609 160.444 76.2007 163.584ZM214.892 161.793C217.431 163.606 217.444 170.44 214.912 171.753C212.169 173.175 209.553 170.638 209.471 166.475C209.389 162.327 212.218 159.884 214.892 161.793ZM160.777 161.83C168.544 162.699 172.318 168.013 170.07 174.915C168.242 180.525 158.981 183.278 155.891 179.13C155.4 178.472 154.93 163.042 155.366 161.904C155.523 161.493 157.515 161.466 160.777 161.83ZM207.101 182.644C207.101 182.786 207.216 182.902 207.356 182.902C209.083 182.902 209.582 192.576 207.894 193.319C206.917 193.749 207.305 193.935 209.179 193.935C211.122 193.935 211.396 193.824 210.397 193.443C209.484 193.095 209.301 192.289 209.301 188.63C209.301 184.457 209.116 184.408 213.458 189.718C215.365 192.052 217.053 193.918 217.209 193.867C217.408 193.8 217.512 192.279 217.558 188.719C217.624 183.666 217.625 183.665 218.23 183.187C218.564 182.924 218.837 182.642 218.837 182.56C218.837 182.315 216.055 182.4 215.658 182.657C215.337 182.865 215.34 182.895 215.682 182.898C216.543 182.907 216.833 183.692 217.011 186.503C217.329 191.478 217.297 191.481 213.436 186.901C211.767 184.92 210.209 183.119 209.974 182.899C209.487 182.444 207.101 182.232 207.101 182.644ZM210.61 215.247C217.296 221.963 222.483 227.361 222.393 227.507C222.122 227.946 20.7235 227.872 20.8264 227.432C20.8699 227.246 26.1888 221.73 32.6464 215.173L44.3881 203.252L121.526 203.251L198.665 203.249L210.61 215.247ZM61.9399 210.209C54.961 212.506 56.4764 221.581 63.8478 221.63C66.4938 221.647 66.9844 221.471 67.5075 220.317C68.2486 218.68 67.9926 218.015 67.1639 219.422C64.1032 224.617 57.509 218.266 60.3155 212.826C61.8994 209.757 65.7698 209.472 67.1504 212.324C67.6422 213.34 67.845 212.973 67.6208 211.472C67.521 210.804 67.3054 210.343 67.045 210.239C66.1771 209.892 62.9597 209.873 61.9399 210.209ZM74.2695 210.221C71.9095 211.066 70.3574 213.3 70.3574 215.855C70.3574 222.752 80.0888 223.956 81.7971 217.269C82.9829 212.627 78.715 208.631 74.2695 210.221ZM153.919 210.102C146.07 212.026 148.151 222.042 156.303 221.579C159.529 221.395 159.42 221.484 159.42 219.032C159.42 217.422 159.502 216.936 159.787 216.826C160.684 216.48 159.993 216.246 158.076 216.246C156.853 216.246 155.998 216.347 155.998 216.492C155.998 216.627 156.212 216.737 156.472 216.737C158.221 216.737 158.122 220.958 156.366 221.288C151.244 222.252 149.088 213.201 153.846 210.708C155.429 209.878 157.948 210.555 158.633 211.995C158.847 212.445 159.118 212.814 159.237 212.814C159.425 212.814 159.241 210.63 159.032 210.392C158.665 209.974 155.235 209.779 153.919 210.102ZM85.4029 210.67L86.0828 211.22L86.0142 215.994L85.945 220.768L85.3337 221.078C84.8008 221.348 85.0189 221.386 87.0456 221.376C88.6351 221.368 89.1998 221.296 88.8341 221.148C88.0232 220.82 87.7488 220.067 87.8284 218.386L87.9013 216.859L89.2653 216.829C92.0375 216.769 93.505 215.425 93.3335 213.104C93.1571 210.713 92.0038 210.132 87.4125 210.124L84.7224 210.119L85.4029 210.67ZM96.7727 210.61C97.297 211.1 97.3148 211.276 97.3148 215.9V220.683L96.5204 221.03C95.7958 221.345 96.1082 221.377 100.051 221.385L104.376 221.395L104.542 220.28C104.759 218.833 104.619 218.741 103.897 219.855C103.195 220.936 101.993 221.329 100.409 220.996L99.393 220.782L99.2711 218.631C99.1155 215.895 99.0555 216.001 100.764 216.001C102.07 216.001 102.243 216.062 102.49 216.606C102.902 217.512 103.183 217.116 103.183 215.634C103.183 214.171 102.903 213.754 102.506 214.625C102.316 215.044 101.982 215.231 101.248 215.33C99.3152 215.59 99.2442 215.503 99.3232 212.967L99.393 210.73L100.793 210.656C102.413 210.571 103.116 210.866 103.329 211.718C103.577 212.708 103.951 212.406 103.87 211.281L103.794 210.239L100.012 210.172L96.2307 210.103L96.7727 210.61ZM107.203 210.492C107.465 210.691 107.759 210.852 107.857 210.852C108.388 210.852 108.619 212.83 108.501 216.346C108.366 220.398 108.298 220.72 107.509 221.102C107.087 221.307 107.386 221.358 108.929 221.345C110.005 221.336 110.639 221.281 110.337 221.222C109.24 221.01 109.052 220.327 109.052 216.574C109.052 212.518 109.159 212.343 110.57 214.115C113.771 218.137 116.721 221.64 116.907 221.64C117.024 221.64 117.127 219.792 117.135 217.534C117.153 212.496 117.34 211.184 118.126 210.578C118.708 210.129 118.706 210.128 116.923 210.123C115.792 210.119 115.191 210.207 115.287 210.362C115.369 210.497 115.592 210.607 115.781 210.607C115.97 210.607 116.239 210.821 116.378 211.081C116.666 211.619 116.73 218.209 116.448 218.206C116.347 218.204 114.726 216.384 112.847 214.16L109.428 210.117L108.078 210.124C106.839 210.132 106.767 210.162 107.203 210.492ZM121.827 210.635L122.5 211.138V215.729C122.5 220.404 122.41 220.906 121.521 221.225C121.32 221.297 122.2 221.364 123.478 221.372C125.482 221.386 125.718 221.346 125.199 221.083C124.471 220.713 124.266 220.049 124.239 217.962C124.21 215.71 124.188 215.726 127.165 215.808L129.712 215.879L129.785 217.839C129.874 220.239 129.758 220.749 129.045 221.094C128.599 221.309 128.949 221.364 130.813 221.375C132.818 221.386 133.054 221.346 132.535 221.083C131.708 220.663 131.599 220.086 131.571 215.971C131.541 211.615 131.655 210.944 132.496 210.486C133.088 210.162 132.965 210.136 130.838 210.127L128.541 210.117L129.188 210.718C129.985 211.459 130.185 214.833 129.448 215.117C128.727 215.394 124.811 215.279 124.504 214.971C123.864 214.329 124.248 210.861 124.982 210.669C126.078 210.381 125.261 210.118 123.294 210.124L121.155 210.132L121.827 210.635ZM139.638 213.355C138.934 215.148 138.215 216.945 138.04 217.35C137.865 217.754 137.522 218.623 137.279 219.281C136.985 220.074 136.583 220.631 136.086 220.935L135.336 221.393L137.17 221.378C138.517 221.368 138.858 221.305 138.454 221.142C137.78 220.871 137.723 219.896 138.297 218.458L138.69 217.472H140.468H142.245L142.764 218.682C143.395 220.153 143.413 220.629 142.855 221.054C142.489 221.332 142.746 221.379 144.628 221.377C146.637 221.375 146.774 221.346 146.208 221.037C145.36 220.575 145.28 220.398 142.722 213.304C141.288 209.329 141.219 209.33 139.638 213.355ZM163.088 210.327C163.088 210.45 163.3 210.605 163.559 210.673C164.212 210.845 164.375 212.21 164.273 216.668C164.184 220.534 164.049 221.022 163.01 221.224C162.717 221.281 164.417 221.343 166.788 221.362L171.098 221.395L171.358 220.368C171.703 219.003 171.487 218.744 170.825 219.729C170.089 220.824 169.303 221.189 167.926 221.074C166.168 220.928 166.023 220.705 166.023 218.166V215.978L167.551 216.051C168.864 216.114 169.113 216.201 169.32 216.675C169.739 217.633 169.935 217.281 169.933 215.572L169.932 213.917L169.383 214.582C168.971 215.082 168.591 215.258 167.856 215.29C165.884 215.375 165.996 215.52 166.075 212.997L166.144 210.73L167.351 210.653C169.04 210.546 169.624 210.748 170.059 211.592C170.592 212.626 170.847 212.499 170.685 211.281L170.546 210.239L166.817 210.172C164.692 210.133 163.088 210.2 163.088 210.327ZM173.725 210.362C173.807 210.497 174.032 210.607 174.222 210.607C175.725 210.607 175.856 220.214 174.365 221.027C173.766 221.353 173.852 221.375 175.68 221.375C177.535 221.376 177.598 221.359 176.878 221.044C176.448 220.857 176.052 220.462 175.964 220.135C175.723 219.23 175.777 213.104 176.027 212.949C176.202 212.84 180.18 217.445 183.166 221.213C183.981 222.241 184.116 221.547 184.116 216.343V211.32L184.763 210.718L185.41 210.117H183.649C182.536 210.117 181.943 210.207 182.038 210.362C182.121 210.497 182.334 210.607 182.512 210.607C183.174 210.607 183.343 211.303 183.449 214.468C183.579 218.354 183.395 218.734 182.144 217.163C181.689 216.592 180.17 214.772 178.768 213.12L176.221 210.117H174.897C174.077 210.117 173.631 210.21 173.725 210.362ZM77.4612 210.705C80.6474 212.357 80.7271 219.746 77.5733 221.068C74.2125 222.476 71.3148 217.587 72.8595 213.114C73.6919 210.704 75.5661 209.722 77.4612 210.705ZM90.4187 211.013C92.2531 212.174 91.4997 215.955 89.3474 216.386C88.0716 216.641 87.7782 216.095 87.7825 213.47C87.788 210.322 88.4097 209.742 90.4187 211.013ZM141.412 214.706C142.135 216.941 142.121 216.983 140.64 216.978C138.902 216.972 138.836 216.856 139.498 214.959C140.465 212.185 140.592 212.168 141.412 214.706Z" fill="#F1F2F3"/>
<path fill-rule="evenodd" clip-rule="evenodd" d="M23.9622 23.3677C23.9622 23.41 24.3199 23.7687 24.7566 24.1642L25.5516 24.8847L24.8331 24.0881C24.1637 23.3449 23.9622 23.1785 23.9622 23.3677ZM225.071 124.06C225.071 179.28 225.099 201.87 225.133 174.26C225.168 146.649 225.168 101.47 225.133 73.8589C225.099 46.2487 225.071 68.8392 225.071 124.06ZM29.3411 28.8074C30.0718 29.5493 30.7242 30.1561 30.7915 30.1561C30.8589 30.1561 30.3162 29.5493 29.5855 28.8074C28.8554 28.0661 28.2025 27.4593 28.1351 27.4593C28.0684 27.4593 28.611 28.0661 29.3411 28.8074ZM100.109 29.6654L100.127 31.5042L102.695 31.519L105.262 31.5331L102.766 31.4489L100.27 31.3648L100.18 29.596L100.09 27.8266L100.109 29.6654ZM107.439 32.8529C107.439 34.943 107.476 35.7979 107.522 34.7532C107.568 33.7079 107.568 31.998 107.522 30.9527C107.476 29.908 107.439 30.7629 107.439 32.8529ZM29.5855 34.2017C30.8583 35.4822 31.9541 36.5306 32.0214 36.5306C32.0882 36.5306 31.1027 35.4822 29.8305 34.2017C28.5577 32.9205 27.462 31.8721 27.3946 31.8721C27.3278 31.8721 28.3134 32.9205 29.5855 34.2017ZM116.451 33.2743C116.823 33.3302 117.373 33.3289 117.674 33.2706C117.975 33.2122 117.671 33.1662 116.998 33.168C116.326 33.1699 116.08 33.2178 116.451 33.2743ZM100.062 34.5689C100.062 35.0412 100.112 35.2341 100.174 34.9983C100.235 34.7624 100.235 34.3761 100.174 34.1403C100.112 33.9044 100.062 34.0973 100.062 34.5689ZM115.409 37.716C115.409 37.9027 114.797 38.0181 113.636 38.0495L111.864 38.098L113.551 38.1846C115.114 38.2644 115.989 38.0108 115.576 37.5974C115.484 37.5053 115.409 37.5581 115.409 37.716ZM123.234 37.716C123.234 37.9082 122.532 38.0181 121.094 38.0519L118.955 38.1017L121.01 38.1846C122.91 38.262 123.836 38.0341 123.4 37.5974C123.308 37.5053 123.234 37.5581 123.234 37.716ZM133.747 37.716C133.747 37.8984 133.194 38.0188 132.219 38.0482L130.691 38.0943L132.133 38.184C133.472 38.2669 134.308 37.9917 133.914 37.5974C133.823 37.5053 133.747 37.5581 133.747 37.716ZM98.8433 38.1803C99.348 38.2331 100.173 38.2331 100.677 38.1803C101.182 38.1275 100.769 38.0839 99.7603 38.0839C98.7521 38.0839 98.3393 38.1275 98.8433 38.1803ZM104.956 38.1803C105.461 38.2331 106.286 38.2331 106.79 38.1803C107.295 38.1275 106.882 38.0839 105.873 38.0839C104.865 38.0839 104.452 38.1275 104.956 38.1803ZM200.738 41.8635L198.665 44.0088L200.804 41.9298C201.981 40.7868 202.944 39.8214 202.944 39.7845C202.944 39.6064 202.663 39.8705 200.738 41.8635ZM77.0016 65.2776C76.9287 65.8046 76.9661 66.1049 77.0892 65.9815C77.2074 65.8635 77.2644 65.4496 77.216 65.0627C77.1357 64.4147 77.1186 64.4313 77.0016 65.2776ZM27.0877 86.4832C27.7982 86.5329 28.8983 86.5323 29.5328 86.482C30.1674 86.4316 29.5855 86.3911 28.2411 86.3917C26.896 86.3923 26.3772 86.4334 27.0877 86.4832ZM212.666 86.7209C212.97 86.7792 213.41 86.7768 213.644 86.7153C213.878 86.6545 213.629 86.606 213.091 86.6091C212.553 86.6116 212.362 86.6619 212.666 86.7209ZM208.385 96.2891C209.023 96.3401 210.068 96.3401 210.707 96.2891C211.346 96.2387 210.824 96.1976 209.546 96.1976C208.268 96.1976 207.746 96.2387 208.385 96.2891ZM216.209 96.2879C216.713 96.3407 217.538 96.3407 218.043 96.2879C218.547 96.235 218.134 96.1914 217.126 96.1914C216.117 96.1914 215.705 96.235 216.209 96.2879ZM210.617 100.89C210.618 102.508 210.657 103.138 210.705 102.29C210.753 101.442 210.753 100.118 210.704 99.3483C210.656 98.5781 210.617 99.2721 210.617 100.89ZM216.723 101.136C216.723 102.349 216.764 102.876 216.815 102.307C216.867 101.738 216.867 100.746 216.817 100.101C216.766 99.4564 216.724 99.9219 216.723 101.136ZM26.7086 101.748C26.7086 102.22 26.7588 102.413 26.8201 102.177C26.8819 101.941 26.8819 101.555 26.8201 101.319C26.7588 101.083 26.7086 101.276 26.7086 101.748ZM208.238 117.869C208.175 117.97 209.022 118.023 210.119 117.987C213.713 117.867 214.119 117.771 211.211 117.728C209.638 117.704 208.301 117.767 208.238 117.869ZM64.3676 122.037C74.5547 122.072 91.2238 122.072 101.411 122.037C111.598 122.001 103.263 121.973 82.8889 121.973C62.5154 121.973 54.1805 122.001 64.3676 122.037ZM142.141 122.037C152.338 122.072 168.953 122.072 179.062 122.037C189.171 122.001 180.828 121.973 160.521 121.973C140.215 121.973 131.943 122.001 142.141 122.037ZM86.5566 166.062C86.5566 166.104 86.9143 166.463 87.3516 166.859L88.146 167.579L87.4282 166.782C86.7587 166.04 86.5566 165.872 86.5566 166.062ZM75.2511 179.153C75.5555 179.212 75.9953 179.209 76.2292 179.148C76.4626 179.087 76.2139 179.039 75.6761 179.042C75.1384 179.044 74.9467 179.094 75.2511 179.153ZM159.975 180.872C160.346 180.928 160.896 180.927 161.197 180.869C161.498 180.81 161.194 180.764 160.521 180.766C159.849 180.768 159.603 180.815 159.975 180.872ZM148.235 183.086C150.488 183.126 154.174 183.126 156.426 183.086C158.678 183.045 156.835 183.012 152.331 183.012C147.825 183.012 145.982 183.045 148.235 183.086ZM216.698 185.722C216.701 186.261 216.751 186.453 216.81 186.148C216.868 185.844 216.866 185.402 216.805 185.167C216.743 184.933 216.696 185.183 216.698 185.722ZM209.363 186.458C209.366 186.997 209.416 187.189 209.474 186.884C209.533 186.579 209.531 186.138 209.469 185.903C209.408 185.669 209.36 185.918 209.363 186.458ZM209.382 189.155C209.382 190.099 209.427 190.455 209.48 189.946C209.533 189.437 209.532 188.665 209.478 188.23C209.423 187.794 209.381 188.211 209.382 189.155ZM117.671 199.989C117.906 200.051 118.291 200.051 118.527 199.989C118.762 199.927 118.57 199.877 118.099 199.877C117.628 199.877 117.436 199.927 117.671 199.989ZM37.4102 205.336C36.4082 206.348 35.6438 207.175 35.7105 207.175C35.7779 207.175 36.6525 206.348 37.6546 205.336C38.6566 204.325 39.421 203.497 39.3537 203.497C39.2869 203.497 38.4123 204.325 37.4102 205.336ZM38.7455 209.198L37.5321 210.485L38.8159 209.269C39.5221 208.599 40.0997 208.02 40.0997 207.981C40.0997 207.798 39.8731 208.002 38.7455 209.198ZM33.6047 209.198L32.8869 209.995L33.6813 209.275C34.4218 208.604 34.5884 208.401 34.3998 208.401C34.3575 208.401 33.9998 208.76 33.6047 209.198ZM175.011 210.046C175.316 210.104 175.756 210.102 175.99 210.041C176.224 209.979 175.974 209.931 175.436 209.934C174.899 209.937 174.708 209.987 175.011 210.046ZM36.056 211.895L34.8426 213.182L36.1264 211.966C36.8326 211.296 37.4102 210.717 37.4102 210.678C37.4102 210.495 37.1836 210.699 36.056 211.895ZM100.31 210.777C100.546 210.839 100.931 210.839 101.167 210.777C101.402 210.715 101.209 210.665 100.738 210.665C100.268 210.665 100.075 210.715 100.31 210.777ZM167.187 210.781C167.491 210.84 167.932 210.837 168.165 210.776C168.399 210.715 168.15 210.667 167.612 210.67C167.074 210.672 166.883 210.722 167.187 210.781ZM166.06 212.984C166.039 214.088 166.106 215.043 166.206 215.106C166.307 215.169 166.359 214.541 166.321 213.711C166.206 211.173 166.098 210.872 166.06 212.984ZM97.1712 215.756C97.1712 218.117 97.208 219.082 97.2527 217.902C97.2974 216.722 97.2974 214.791 97.2527 213.611C97.208 212.431 97.1712 213.397 97.1712 215.756ZM85.9227 215.756C85.9227 217.981 85.96 218.892 86.0054 217.779C86.0507 216.666 86.0507 214.846 86.0054 213.734C85.96 212.622 85.9227 213.532 85.9227 215.756ZM122.355 215.756C122.355 217.981 122.392 218.892 122.437 217.779C122.483 216.666 122.483 214.846 122.437 213.734C122.392 212.622 122.355 213.532 122.355 215.756ZM93.4601 213.304C93.4601 213.777 93.5103 213.97 93.5716 213.734C93.6334 213.498 93.6334 213.112 93.5716 212.876C93.5103 212.64 93.4601 212.833 93.4601 213.304ZM184.213 216.369C184.214 218.257 184.252 218.997 184.299 218.014C184.345 217.03 184.345 215.485 184.298 214.581C184.251 213.677 184.213 214.482 184.213 216.369ZM109.144 216.002C109.144 217.553 109.184 218.187 109.233 217.411C109.281 216.636 109.281 215.367 109.233 214.592C109.184 213.817 109.144 214.451 109.144 216.002ZM157.164 216.179C157.603 216.234 158.263 216.233 158.631 216.177C158.998 216.121 158.639 216.076 157.832 216.077C157.025 216.079 156.724 216.125 157.164 216.179ZM167.307 216.171C167.542 216.232 167.927 216.232 168.162 216.171C168.398 216.109 168.205 216.058 167.734 216.058C167.264 216.058 167.071 216.109 167.307 216.171ZM218.959 218.944C220.434 220.427 221.696 221.641 221.763 221.641C221.83 221.641 220.679 220.427 219.204 218.944C217.73 217.461 216.468 216.247 216.4 216.247C216.333 216.247 217.485 217.461 218.959 218.944ZM166.103 218.331C166.104 219.275 166.149 219.631 166.201 219.123C166.254 218.613 166.253 217.841 166.199 217.406C166.145 216.97 166.102 217.387 166.103 218.331ZM159.499 218.944C159.499 219.82 159.544 220.179 159.598 219.74C159.652 219.303 159.652 218.585 159.598 218.147C159.544 217.709 159.499 218.067 159.499 218.944ZM184.173 220.66C184.173 221.132 184.224 221.325 184.285 221.089C184.347 220.853 184.347 220.467 184.285 220.231C184.224 219.995 184.173 220.188 184.173 220.66ZM219.821 224.952C221.096 226.301 222.188 227.373 222.249 227.333C222.31 227.294 221.268 226.19 219.933 224.88L217.505 222.499L219.821 224.952Z" fill="#848C93"/>
</svg>
