<svg id="Layer_1" data-name="Layer 1" xmlns="http://www.w3.org/2000/svg" viewBox="0 0 1000 500"><defs><style>.cls-1{fill:#bd8360;}</style></defs><title>small_label_butique</title><path class="cls-1" d="M390.67,92.71V85.45L405.25,84V19.76l-14.85.95-4,22.54h-9.87L378.1,12h70.84l1.64,31.23h-9.91l-3.93-22.54-14.47-.95V84l15.48,1.43v7.26Z"/><path class="cls-1" d="M456,92.71v-7.1l6.52-1.06V13.77l-7.95-1.33V6.24l20.63-2.6h.26l3.24,2.49.1,25L478,39.53a33.76,33.76,0,0,1,3.58-2.81A32.2,32.2,0,0,1,486.42,34a34.49,34.49,0,0,1,5.91-2.06,27.1,27.1,0,0,1,6.76-.83,22.09,22.09,0,0,1,8.59,1.44,11.85,11.85,0,0,1,5.39,4.4,19.81,19.81,0,0,1,2.81,7.5,61.74,61.74,0,0,1,.82,10.73V84.55l7.47,1.06v7.1H494.48V85.82l5.89-1.17V55a48.12,48.12,0,0,0-.37-6.34,11.36,11.36,0,0,0-1.41-4.37,6.26,6.26,0,0,0-2.86-2.52A11.5,11.5,0,0,0,491,41a16.22,16.22,0,0,0-3.4.37,27.15,27.15,0,0,0-3.36.92,25.61,25.61,0,0,0-3,1.28A13.56,13.56,0,0,0,478.84,45V84.55l7.27,1.06v7.1Z"/><path class="cls-1" d="M558.26,93.93a32.27,32.27,0,0,1-12.85-2.33,23.52,23.52,0,0,1-8.86-6.5,26.57,26.57,0,0,1-5.11-9.94,45.82,45.82,0,0,1-1.65-12.62,39.25,39.25,0,0,1,2.1-13.28,28.32,28.32,0,0,1,5.91-10A25.34,25.34,0,0,1,547,33a31.3,31.3,0,0,1,11.88-2.17q22,0,23,21.47.11,3.66,0,6.6a31.94,31.94,0,0,1-.56,5H546.6a33,33,0,0,0,1.54,9,17.58,17.58,0,0,0,3.34,6,12.17,12.17,0,0,0,4.9,3.4,17.82,17.82,0,0,0,6.23,1.06,27.6,27.6,0,0,0,5-.43A33.3,33.3,0,0,0,572,81.84a25.86,25.86,0,0,0,3.61-1.43,29.36,29.36,0,0,0,2.78-1.54l2.76,6.42a20.9,20.9,0,0,1-3.69,2.89A34.54,34.54,0,0,1,572,91a42.5,42.5,0,0,1-6.57,2.12A30.41,30.41,0,0,1,558.26,93.93Zm-1.43-56a9.74,9.74,0,0,0-3.84.75,7.07,7.07,0,0,0-3.13,2.81,18.47,18.47,0,0,0-2.23,5.75,50.56,50.56,0,0,0-1.08,9.52h19q0-.27,0-.75c0-.31,0-.65,0-1s0-.69,0-1v-.69a42.91,42.91,0,0,0-.37-5.49,17.66,17.66,0,0,0-1.36-5,9.43,9.43,0,0,0-2.7-3.55A6.86,6.86,0,0,0,556.83,37.94Z"/><path class="cls-1" d="M6.28,310.16V296.09l16.85-2.77V170.77L6.49,167.58V153.82H39.05c3.43,0,6.54-.07,9.35-.21s5.48-.29,8-.46,5.05-.33,7.55-.46,5.16-.21,8-.21q29.49,0,43.25,8.53t13.77,26.81a44,44,0,0,1-2.52,15.41,36.38,36.38,0,0,1-6.93,11.71A35.52,35.52,0,0,1,109,223a44.57,44.57,0,0,1-13.31,4.21A60.54,60.54,0,0,1,113,229.78,44,44,0,0,1,127.14,237a34.23,34.23,0,0,1,9.45,11.3,32,32,0,0,1,3.44,15,55.08,55.08,0,0,1-3,18,37,37,0,0,1-10.32,15.4q-7.35,6.74-19.73,10.74t-31.17,4c-2.74,0-5.4-.07-8-.21s-5.3-.27-8.17-.41-6-.27-9.35-.41-7.26-.21-11.71-.21ZM55.59,167.38v54c1,.14,2.23.25,3.8.36s3.2.17,4.88.2,3.34.06,5,.06h4.22a27.77,27.77,0,0,0,10.83-1.9,17.44,17.44,0,0,0,7.25-5.61,23.33,23.33,0,0,0,4-9.19,60.59,60.59,0,0,0,1.18-12.68A43.44,43.44,0,0,0,95.29,181a18.57,18.57,0,0,0-4.57-8.22,19.46,19.46,0,0,0-8.42-4.83,44.3,44.3,0,0,0-12.74-1.59,79.26,79.26,0,0,0-8.37.41Q57.23,167.17,55.59,167.38Zm0,69.13v58.86a10,10,0,0,0,2.77.87c1.24.24,2.59.43,4.06.57s3,.24,4.67.31,3.19.1,4.63.1a51.07,51.07,0,0,0,15.72-2.11A27,27,0,0,0,98,289.05a23.29,23.29,0,0,0,6-9.7,41.46,41.46,0,0,0,1.91-13.05,47.22,47.22,0,0,0-1.8-14A21.08,21.08,0,0,0,98.48,243a23.15,23.15,0,0,0-9.86-5.24,55.12,55.12,0,0,0-14.33-1.64H69.71c-1.81,0-3.64,0-5.49.05s-3.56.09-5.14.15S56.34,236.44,55.59,236.51Z"/><path class="cls-1" d="M226.73,311.81q-32.16,0-48.08-16t-15.92-49.92v-75l-14.38-3.29V153.82H214.2v13.76l-17.57,3.19v78.68a87.23,87.23,0,0,0,2.26,21.06,45.26,45.26,0,0,0,6.42,15,27,27,0,0,0,10.17,8.94,29.88,29.88,0,0,0,13.41,3,32.77,32.77,0,0,0,16.18-3.75,31.63,31.63,0,0,0,11-10.23,46.13,46.13,0,0,0,6.37-15.25,82.64,82.64,0,0,0,2-18.85V170.77l-17.36-3.19V153.82h52.39v13.76l-14.07,3.08v77.87q0,16.64-4.47,28.61a53,53,0,0,1-12.33,19.67,48.31,48.31,0,0,1-18.64,11.35A72.42,72.42,0,0,1,226.73,311.81Z"/><path class="cls-1" d="M333.36,310.16V296.09l28.25-2.88V168.81l-28.77,1.85L325,214.32H305.93l3.08-60.5H446.25l3.19,60.5H430.23l-7.6-43.66-28.05-1.85V293.32l30,2.77v14.07Z"/><path class="cls-1" d="M461.76,310.16V296.09l18.08-2.88V170.77l-18.08-3.19V153.82h68.52v13.76l-18,3.19V293.21l18,3.08v13.87Z"/><path class="cls-1" d="M616.16,312.53q-17.88.2-31.08-5.34a56.6,56.6,0,0,1-21.82-15.83,67.31,67.31,0,0,1-12.9-24.91,116.87,116.87,0,0,1-4.26-32.71,102.16,102.16,0,0,1,5.24-33.7,75.05,75.05,0,0,1,14.84-25.83,65.14,65.14,0,0,1,23.06-16.54,74.73,74.73,0,0,1,29.9-5.81q18.08,0,31.17,5.5a55,55,0,0,1,21.58,15.77,66.54,66.54,0,0,1,12.53,24.81,121.47,121.47,0,0,1,4.06,32.61,106.44,106.44,0,0,1-3.65,28.61,80.59,80.59,0,0,1-10.43,23.27A66.07,66.07,0,0,1,658,299.53a66.88,66.88,0,0,1-21.52,10.22,22.91,22.91,0,0,0,7.39,8.79,37.17,37.17,0,0,0,10.59,5.13A58.84,58.84,0,0,0,666.75,326q6.42.57,12.58.57h1.34c.68,0,1.66-.05,2.93-.16s2.57-.25,3.9-.46,2.58-.44,3.75-.71a7.59,7.59,0,0,0,2.46-.93v26a6.88,6.88,0,0,1-2.56,1.49,33.46,33.46,0,0,1-4.62,1.39q-2.68.62-5.91,1.07a45.16,45.16,0,0,1-6.42.47h-.41a67.74,67.74,0,0,1-21.47-3.19A49.89,49.89,0,0,1,636,342.73a41.16,41.16,0,0,1-10.63-13.41,43.29,43.29,0,0,1-4.37-17c-.82.07-1.62.12-2.41.15S617,312.53,616.16,312.53Zm1.23-146.59a27.25,27.25,0,0,0-14.84,4.16,33.63,33.63,0,0,0-11.3,12.58q-4.68,8.43-7.19,21.16a155.21,155.21,0,0,0-2.52,29.79A152,152,0,0,0,584,263.06q2.47,12.29,7.09,20.14a28.48,28.48,0,0,0,26.09,15.15,26.86,26.86,0,0,0,14.8-4.21,34.4,34.4,0,0,0,11.25-12.64q4.66-8.42,7.19-21.11a155.17,155.17,0,0,0,2.51-29.74,150.66,150.66,0,0,0-2.46-29.22q-2.47-12.27-7-20.14a30.64,30.64,0,0,0-11.14-11.6A29.55,29.55,0,0,0,617.39,165.94Z"/><path class="cls-1" d="M776.31,311.81q-32.16,0-48.08-16t-15.92-49.92v-75l-14.38-3.29V153.82h65.84v13.76l-17.56,3.19v78.68a87.23,87.23,0,0,0,2.26,21.06,45,45,0,0,0,6.42,15,26.93,26.93,0,0,0,10.17,8.94,29.85,29.85,0,0,0,13.41,3,32.73,32.73,0,0,0,16.17-3.75,31.57,31.57,0,0,0,11.05-10.23,46.34,46.34,0,0,0,6.37-15.25,82.64,82.64,0,0,0,2.05-18.85V170.77l-17.36-3.19V153.82h52.39v13.76l-14.07,3.08v77.87q0,16.64-4.47,28.61a53,53,0,0,1-12.33,19.67,48.28,48.28,0,0,1-18.65,11.35A72.31,72.31,0,0,1,776.31,311.81Z"/><path class="cls-1" d="M860.54,310.16V296l16.85-2.78V170.77l-16.64-3.19V153.82h113.1l2.36,35.64H958.64l-7.49-19.93-40.89-2.05v55.67l26.71-.41,3.08-17.25h17.77v50.43H940.05L937,238.67l-26.71-.52v56.19L959.47,292l12.63-27.12,17.57,4-6,41.29Z"/><path class="cls-1" d="M421.56,423.3s-128.33,23.37-182.47,0-11.93-57.08,33.09-23.38c0,0,15-19.48-24.06-25.61S182,384.15,185,404c0,0-92.57-56.77-152.06-33s-11.36,46.76,7.35,51.21,62.16,3.34,70.85-9.27c0,0-72.39,6.46-82.31-9.58s32.85-36.07,79.64-13.8S262.82,481.55,421.56,423.3Z"/><path class="cls-1" d="M559,423.42s128.33,23.38,182.47,0,11.94-57.08-33.09-23.38c0,0-15-19.48,24.06-25.6s66.17,9.83,63.17,29.68c0,0,92.57-56.77,152.05-33s11.36,46.75-7.35,51.21-62.16,3.33-70.85-9.28c0,0,72.39,6.46,82.31-9.57S919,367.39,872.17,389.65,717.77,481.68,559,423.42Z"/><path class="cls-1" d="M496.85,479.35A41.08,41.08,0,0,1,476.7,474a52.71,52.71,0,0,1-16.28-14.39c-9.56-12.55-14.83-29.21-14.83-46.9s5.27-34.34,14.83-46.89a52.71,52.71,0,0,1,16.28-14.39,40.71,40.71,0,0,1,40.31,0,52.68,52.68,0,0,1,16.27,14.39c9.57,12.55,14.83,29.2,14.83,46.89s-5.26,34.35-14.83,46.9A52.68,52.68,0,0,1,517,474,41.14,41.14,0,0,1,496.85,479.35Zm0-129c-25.93,0-47,28-47,62.39s21.1,62.4,47,62.4,47-28,47-62.4S522.78,350.34,496.85,350.34Z"/><path class="cls-1" d="M467.1,404.89a51.28,51.28,0,0,0,6.42-4.3,37.12,37.12,0,0,0,5.12-4.79,22.86,22.86,0,0,0,3.39-5,11.16,11.16,0,0,0,1.22-4.92,5.89,5.89,0,0,0-.4-2.22,5,5,0,0,0-3-2.91,6.8,6.8,0,0,0-2.43-.41,9.7,9.7,0,0,0-2.73.36,11.12,11.12,0,0,0-2.24.87,12.1,12.1,0,0,0-1.76,1.1c-.5.39-.95.74-1.34,1.06l-2-3.06a10.84,10.84,0,0,1,2-1.93,16.86,16.86,0,0,1,3-1.83,19.54,19.54,0,0,1,3.71-1.37,16.67,16.67,0,0,1,4.2-.53,14.67,14.67,0,0,1,5,.75,9.57,9.57,0,0,1,3.44,2,7.83,7.83,0,0,1,2,2.92,9.45,9.45,0,0,1,.64,3.47,11.19,11.19,0,0,1-1.33,5.19,23.2,23.2,0,0,1-3.56,5.05,39.57,39.57,0,0,1-5.18,4.69A66.65,66.65,0,0,1,475,403.3l14.13-1.44,1.92-3.64,3.57.73-1.42,9H468.24Z"/><path class="cls-1" d="M512,408.45a14.07,14.07,0,0,1-5.87-1.13,11,11,0,0,1-4.19-3.26,14.39,14.39,0,0,1-2.49-5.17,26.61,26.61,0,0,1-.82-6.84,21.23,21.23,0,0,1,1.23-7.42,14.86,14.86,0,0,1,3.22-5.2,12.83,12.83,0,0,1,4.68-3.07,15.47,15.47,0,0,1,5.61-1,14.85,14.85,0,0,1,5.91,1.08,10.47,10.47,0,0,1,4.13,3.12,13.53,13.53,0,0,1,2.43,5,26,26,0,0,1,.77,6.84,21.85,21.85,0,0,1-1.16,7.44,15.6,15.6,0,0,1-3.16,5.34,12.78,12.78,0,0,1-4.64,3.19A14.94,14.94,0,0,1,512,408.45Zm.73-3.38a4.18,4.18,0,0,0,2.63-.81,5.5,5.5,0,0,0,1.71-2.44,16,16,0,0,0,.92-4.07,50.12,50.12,0,0,0,.28-5.72,54.39,54.39,0,0,0-.28-6,15.94,15.94,0,0,0-.92-4.15,5.23,5.23,0,0,0-1.73-2.39,4.56,4.56,0,0,0-2.68-.77,4.45,4.45,0,0,0-2.66.78,5.5,5.5,0,0,0-1.75,2.37,14.87,14.87,0,0,0-1,4,43.22,43.22,0,0,0-.31,5.57,49.88,49.88,0,0,0,.31,6,17.18,17.18,0,0,0,1,4.27,5.9,5.9,0,0,0,1.78,2.55A4.26,4.26,0,0,0,512.72,405.07Z"/><path class="cls-1" d="M474.19,448.72v-3.24l5.79-.66V423.77c-.32.1-.75.2-1.29.31s-1.09.22-1.67.32-1.14.19-1.7.26-1,.11-1.36.13l-.66-4a18.18,18.18,0,0,0,2.94-.87,27.89,27.89,0,0,0,2.84-1.27c.91-.48,1.76-1,2.56-1.52a25.35,25.35,0,0,0,2.14-1.6h0l4.18.74v28.56l5.36.66v3.24Z"/><path class="cls-1" d="M501.85,455.84q2.08-4.21,4.2-8.71t4.07-8.95q2-4.44,3.75-8.61c1.19-2.78,2.28-5.35,3.26-7.69l-14.31.2-2,6-4.44-.79L497.72,416h24.62l1.61,1.84L510,458.06Z"/></svg>