<svg id="Layer_1" data-name="Layer 1" xmlns="http://www.w3.org/2000/svg" viewBox="0 0 1000 517.68"><defs><style>.cls-1{fill:#bd8360;}</style></defs><title>smal_label_bar</title><path class="cls-1" d="M399.22,98.06V90.65l14.89-1.52V23.58l-15.16,1-4.11,23H384.77l1.62-31.88h72.32l1.68,31.88H450.27l-4-23-14.78-1V89.19l15.81,1.46v7.41Z"/><path class="cls-1" d="M466,98.06V90.81l6.65-1.08V17.46l-8.12-1.35V9.78l21.06-2.66h.27l3.3,2.55.11,25.49-.86,8.61a33.76,33.76,0,0,1,8.6-5.66A36.29,36.29,0,0,1,503,36a27.64,27.64,0,0,1,6.9-.84,22.58,22.58,0,0,1,8.77,1.47,12.07,12.07,0,0,1,5.49,4.49,20,20,0,0,1,2.87,7.66,62.17,62.17,0,0,1,.84,11v30l7.63,1.08v7.25H505.21V91l6-1.19V59.58a48.25,48.25,0,0,0-.38-6.47,11.71,11.71,0,0,0-1.43-4.47,6.48,6.48,0,0,0-2.93-2.57,11.72,11.72,0,0,0-4.79-.84,16.81,16.81,0,0,0-3.46.38,28.47,28.47,0,0,0-3.44,1,25,25,0,0,0-3.11,1.3,13.76,13.76,0,0,0-2.44,1.49V89.73l7.42,1.08v7.25Z"/><path class="cls-1" d="M570.33,99.31a33,33,0,0,1-13.13-2.38,24.09,24.09,0,0,1-9-6.63,27.4,27.4,0,0,1-5.22-10.15,47,47,0,0,1-1.68-12.89A40,40,0,0,1,543.4,53.7a29.18,29.18,0,0,1,6-10.17,25.84,25.84,0,0,1,9.36-6.42,32,32,0,0,1,12.13-2.22q22.46,0,23.43,21.93c.08,2.49.07,4.73,0,6.74a31.9,31.9,0,0,1-.57,5.06H558.42A33.4,33.4,0,0,0,560,77.76a18,18,0,0,0,3.41,6.18,12.51,12.51,0,0,0,5,3.46,18.06,18.06,0,0,0,6.36,1.08,28.65,28.65,0,0,0,5.14-.43A35.59,35.59,0,0,0,584.32,87,27.66,27.66,0,0,0,588,85.51c1.1-.55,2-1.07,2.85-1.57l2.81,6.55a21.41,21.41,0,0,1-3.76,3,37.36,37.36,0,0,1-5.52,2.84,44.45,44.45,0,0,1-6.72,2.16A31.07,31.07,0,0,1,570.33,99.31Zm-1.46-57.16a10.19,10.19,0,0,0-3.93.75,7.3,7.3,0,0,0-3.19,2.87,18.73,18.73,0,0,0-2.27,5.88,50.55,50.55,0,0,0-1.11,9.71H577.8q0-.27,0-.75c0-.33,0-.67,0-1s0-.71,0-1v-.71a42.84,42.84,0,0,0-.38-5.6,17.94,17.94,0,0,0-1.38-5.06,9.69,9.69,0,0,0-2.76-3.63A7.05,7.05,0,0,0,568.87,42.15Z"/><path class="cls-1" d="M270.72,320.07V305.7l17.2-2.83V177.75l-17-3.25V160.45h33.24q5.25,0,9.55-.21t8.18-.47q3.87-.27,7.71-.48t8.12-.21q30.11,0,44.16,8.71t14.05,27.37a44.82,44.82,0,0,1-2.57,15.73,36.89,36.89,0,0,1-7.08,12A36.15,36.15,0,0,1,375.54,231a45.71,45.71,0,0,1-13.58,4.3A61.67,61.67,0,0,1,379.69,238a44.69,44.69,0,0,1,14.42,7.34,34.85,34.85,0,0,1,9.65,11.53,32.65,32.65,0,0,1,3.51,15.26,56.24,56.24,0,0,1-3,18.41,37.84,37.84,0,0,1-10.54,15.73q-7.5,6.87-20.14,11t-31.83,4.09q-4.2,0-8.13-.21l-8.34-.42q-4.39-.21-9.54-.42t-12-.21Zm50.34-145.78v55.17c1,.14,2.27.26,3.88.36s3.27.18,5,.21,3.41.06,5.09.06h4.3a28.29,28.29,0,0,0,11.06-1.94,17.79,17.79,0,0,0,7.4-5.72,23.83,23.83,0,0,0,4-9.39A61.6,61.6,0,0,0,363,200.09a44.8,44.8,0,0,0-1.41-11.9,19.07,19.07,0,0,0-4.67-8.39,20,20,0,0,0-8.6-4.93,45,45,0,0,0-13-1.63,82.5,82.5,0,0,0-8.54.42C324.08,173.94,322.18,174.15,321.06,174.29Zm0,70.59V305a9.83,9.83,0,0,0,2.83.89,40.92,40.92,0,0,0,4.14.58c1.51.14,3.1.24,4.77.31s3.26.11,4.73.11a52.32,52.32,0,0,0,16-2.15,27.5,27.5,0,0,0,10.8-6.19,24,24,0,0,0,6.14-9.91,42.52,42.52,0,0,0,1.94-13.32A48.12,48.12,0,0,0,370.61,261a21.54,21.54,0,0,0-5.76-9.54,23.61,23.61,0,0,0-10.07-5.35,56.37,56.37,0,0,0-14.63-1.67h-4.67c-1.85,0-3.72,0-5.61,0s-3.64.09-5.24.15S321.83,244.81,321.06,244.88Z"/><path class="cls-1" d="M407.69,320.07l-.11-14.37,13.53-2.93,50.55-142.95h33.67l50.45,143,14.57,2.93v14.37H502.29V305.7l17.09-2.93-7.86-25.59H454.57l-7.45,25.69,17.31,2.83v14.37Zm71.1-126.9-19.5,67.65h47.19l-20.66-67.65-3.67-15.31Z"/><path class="cls-1" d="M573,320.07V305.7l17.2-2.72V177.75l-16.46-3.25V160.45h32.62c3.28,0,6.31-.07,9.07-.21s5.5-.3,8.23-.47,5.59-.34,8.6-.48,6.43-.21,10.28-.21q16.26,0,27.37,2.68t18,7.92a29.33,29.33,0,0,1,9.86,13.11,50.91,50.91,0,0,1,3,18.14,53.18,53.18,0,0,1-1.84,13.63,46.77,46.77,0,0,1-5.66,13,42.76,42.76,0,0,1-9.65,10.7A37.22,37.22,0,0,1,669.78,245a28,28,0,0,1,9.91,7.29,73.25,73.25,0,0,1,8.18,11.17,133.83,133.83,0,0,1,6.82,12.9q3.09,6.71,5.92,12.37a87.29,87.29,0,0,0,5.45,9.55q2.63,3.87,5.35,4.61l8.81,2.83v14.37H681.63q-2.52,0-5.3-4.45a88.87,88.87,0,0,1-5.77-11.39q-3-6.92-6.18-15.2t-6.61-16a122.49,122.49,0,0,0-7.08-13.79q-3.68-6.08-7.55-8.49h-5.93c-2.06,0-4,0-5.92-.06s-3.59-.06-5.09-.1-2.61-.09-3.3-.16V303l18.56,2.72v14.37Zm49.93-83.9a17,17,0,0,0,3.46.42c1.54.07,3.18.1,4.93.1h9.12q12.17,0,19.14-8.33t7-26.07A42.91,42.91,0,0,0,664.9,190a22.1,22.1,0,0,0-5.19-9.12,22.75,22.75,0,0,0-9.23-5.67,42.39,42.39,0,0,0-13.63-1.94c-2.17,0-4,0-5.51.11s-2.78.15-3.83.26-1.94.23-2.67.37-1.39.24-1.94.31Z"/><path class="cls-1" d="M430.76,435.58s-131,23.86-186.29,0-12.19-58.28,33.78-23.87c0,0,15.35-19.89-24.57-26.14s-67.55,10-64.48,30.31c0,0-94.51-58-155.25-33.72s-11.6,47.73,7.51,52.28,63.46,3.41,72.33-9.47c0,0-73.9,6.59-84-9.77s33.54-36.83,81.3-14.1S268.69,495.05,430.76,435.58Z"/><path class="cls-1" d="M571.11,435.7s131,23.87,186.29,0,12.19-58.27-33.78-23.87c0,0-15.35-19.89,24.57-26.14s67.55,10,64.48,30.31c0,0,94.51-58,155.25-33.72s11.6,47.74-7.51,52.28S897,438,888.08,425.09c0,0,73.9,6.6,84-9.77s-33.54-36.82-81.3-14.09S733.18,495.18,571.11,435.7Z"/><path class="cls-1" d="M507.63,492.81a41.92,41.92,0,0,1-20.58-5.45,53.78,53.78,0,0,1-16.62-14.69c-9.76-12.81-15.13-29.82-15.13-47.88s5.37-35.06,15.13-47.87a53.81,53.81,0,0,1,16.62-14.7,41.65,41.65,0,0,1,41.16,0,53.89,53.89,0,0,1,16.61,14.7c9.77,12.81,15.14,29.81,15.14,47.87s-5.37,35.07-15.14,47.88a53.86,53.86,0,0,1-16.61,14.69A42,42,0,0,1,507.63,492.81Zm0-131.72c-26.48,0-48,28.58-48,63.7s21.54,63.7,48,63.7,48-28.57,48-63.7S534.1,361.09,507.63,361.09Z"/><path class="cls-1" d="M477.26,416.79a54.55,54.55,0,0,0,6.55-4.39,38.71,38.71,0,0,0,5.23-4.89,23.07,23.07,0,0,0,3.45-5.08,11.39,11.39,0,0,0,1.26-5,5.92,5.92,0,0,0-.42-2.27,5.09,5.09,0,0,0-3.05-3,7,7,0,0,0-2.5-.41,10.12,10.12,0,0,0-2.78.36,12.14,12.14,0,0,0-4.08,2c-.51.39-1,.76-1.37,1.08l-2.09-3.12a10.73,10.73,0,0,1,2-2,17.18,17.18,0,0,1,3.05-1.87,19.7,19.7,0,0,1,3.79-1.4,16.85,16.85,0,0,1,4.28-.54,15,15,0,0,1,5.07.76,10,10,0,0,1,3.51,2.05,8.11,8.11,0,0,1,2,3,9.68,9.68,0,0,1,.66,3.55,11.55,11.55,0,0,1-1.35,5.3,23.93,23.93,0,0,1-3.64,5.15,39.84,39.84,0,0,1-5.29,4.79,68.82,68.82,0,0,1-6.34,4.27l14.43-1.47,2-3.72,3.64.75-1.45,9.19H478.42Z"/><path class="cls-1" d="M523.09,420.42a14.34,14.34,0,0,1-6-1.16,11.15,11.15,0,0,1-4.28-3.33,14.62,14.62,0,0,1-2.54-5.27,26.82,26.82,0,0,1-.84-7,21.59,21.59,0,0,1,1.26-7.58,15,15,0,0,1,3.29-5.31,13.18,13.18,0,0,1,4.77-3.14,15.94,15.94,0,0,1,5.73-1,15.29,15.29,0,0,1,6,1.1,10.71,10.71,0,0,1,4.22,3.18,13.88,13.88,0,0,1,2.47,5.15,26.13,26.13,0,0,1,.79,7,22.25,22.25,0,0,1-1.19,7.6,15.72,15.72,0,0,1-3.22,5.45,13.13,13.13,0,0,1-4.74,3.26A15.36,15.36,0,0,1,523.09,420.42Zm.74-3.45a4.33,4.33,0,0,0,2.69-.83,5.66,5.66,0,0,0,1.74-2.49,16.47,16.47,0,0,0,.94-4.15,52.33,52.33,0,0,0,.28-5.85,56.62,56.62,0,0,0-.28-6.11,16.54,16.54,0,0,0-.94-4.24,5.33,5.33,0,0,0-1.77-2.44,4.63,4.63,0,0,0-2.73-.78,4.46,4.46,0,0,0-2.71.8,5.59,5.59,0,0,0-1.8,2.41,16,16,0,0,0-1,4A45.1,45.1,0,0,0,518,403a51.79,51.79,0,0,0,.31,6.1,17.41,17.41,0,0,0,1,4.37,5.91,5.91,0,0,0,1.82,2.6A4.32,4.32,0,0,0,523.83,417Z"/><path class="cls-1" d="M484.49,461.53v-3.3l5.91-.68V436.06c-.33.1-.76.21-1.31.32l-1.71.33c-.59.1-1.17.19-1.73.26s-1,.11-1.39.13l-.68-4.09a19.83,19.83,0,0,0,3-.89,26,26,0,0,0,2.89-1.3,28.71,28.71,0,0,0,2.62-1.55c.81-.55,1.54-1.09,2.19-1.63h0l4.27.76v29.15l5.48.68v3.3Z"/><path class="cls-1" d="M512.73,468.8q2.13-4.29,4.29-8.89t4.15-9.14q2-4.53,3.83-8.79t3.33-7.85l-14.61.21-2,6.12-4.53-.81,1.33-11.49h25.14l1.64,1.88-14.2,41Z"/></svg>