<svg width="132" height="5" viewBox="0 0 132 5" fill="none" xmlns="http://www.w3.org/2000/svg">
<g clip-path="url(#clip0)">
<path d="M65.996 2.27706H67.4047C67.4047 2.27706 70.8053 2.58571 72.6504 0.0342698C72.6504 0.0342698 76.4994 -0.0343175 77.4636 0.0342698C80.2412 0.219455 94.8753 1.04935 99.0218 1.2071C101.597 1.30313 117.783 2.01642 119.656 2.09873C121.528 2.18103 131.996 2.21533 131.996 2.21533V2.75031C131.996 2.75031 121.528 2.79146 119.656 2.87377C117.783 2.95607 101.597 3.66253 99.0218 3.76541C94.8753 3.92316 80.2531 4.75306 77.4636 4.93824C76.4994 4.99997 72.6504 4.93824 72.6504 4.93824C70.8132 2.41424 67.4047 2.75031 67.4047 2.75031H64.5914C64.5914 2.75031 61.1908 2.44167 59.3456 4.99997C59.3456 4.99997 55.4967 5.0617 54.5324 4.99997C51.7548 4.81478 37.1208 3.98489 32.9742 3.82714C30.399 3.72426 14.2134 3.0178 12.3405 2.93549C10.4676 2.85319 0 2.81204 0 2.81204V2.24278C0 2.24278 10.4676 2.20847 12.3405 2.12617C14.2134 2.04386 30.399 1.33057 32.9742 1.23454C37.1208 1.07679 51.7429 0.246875 54.5324 0.0616894C55.4967 -0.00689745 59.3456 0.0616894 59.3456 0.0616894C61.1908 2.61313 64.5914 2.3045 64.5914 2.3045H65.996V2.27706Z" fill="#8A6551"/>
<path d="M65.9958 0.692769C66.1977 0.691411 66.3952 0.793636 66.5634 0.986495C66.7317 1.17935 66.863 1.45418 66.9408 1.77614C67.0186 2.09811 67.0393 2.45273 67.0004 2.79511C66.9615 3.13749 66.8647 3.45222 66.7223 3.69942C66.5798 3.94662 66.3981 4.11519 66.2002 4.18377C66.0023 4.25234 65.797 4.21783 65.6104 4.08462C65.4239 3.95141 65.2644 3.72548 65.1521 3.43546C65.0399 3.14544 64.98 2.80438 64.98 2.45546C64.98 1.98915 65.0869 1.54183 65.2773 1.21146C65.4677 0.881091 65.726 0.694583 65.9958 0.692769Z" fill="#8A6551"/>
</g>
<defs>
<clipPath id="clip0">
</clipPath>
</defs>
</svg>
