<svg id="Layer_1" data-name="Layer 1" xmlns="http://www.w3.org/2000/svg" viewBox="0 0 1000 1000"><defs><style>.cls-1{fill:#bd8360;}</style></defs><title>year</title><path class="cls-1" d="M516.09,970.82c-49.64,0-97.75-12.74-143-37.85-43.33-24.06-82.18-58.41-115.46-102.09-67.83-89-105.18-207.18-105.18-332.67s37.35-243.65,105.18-332.68c33.28-43.68,72.13-78,115.46-102.09,45.24-25.11,93.35-37.85,143-37.85s97.75,12.74,143,37.85c43.34,24.06,82.19,58.41,115.47,102.09,67.83,89,105.18,207.18,105.18,332.68S842.37,741.85,774.54,830.88c-33.28,43.68-72.13,78-115.47,102.09C613.84,958.08,565.73,970.82,516.09,970.82Zm0-915.23c-184,0-333.63,198.56-333.63,442.62S332.12,940.82,516.09,940.82,849.72,742.26,849.72,498.21,700.05,55.59,516.09,55.59Z"/><path class="cls-1" d="M305.05,442.57a368.07,368.07,0,0,0,45.54-30.48,270.47,270.47,0,0,0,36.31-34,161,161,0,0,0,24-35.32q8.69-17.84,8.69-34.88a42.14,42.14,0,0,0-2.86-15.77,36.32,36.32,0,0,0-8.25-12.47,36.8,36.8,0,0,0-13-8.15,48.92,48.92,0,0,0-17.3-2.87,70.49,70.49,0,0,0-19.37,2.51,84.53,84.53,0,0,0-28.33,14q-5.37,4.13-9.5,7.53L306.49,271a76.11,76.11,0,0,1,14.16-13.72,124.29,124.29,0,0,1,21.16-13,140.22,140.22,0,0,1,26.35-9.68,116.84,116.84,0,0,1,29.77-3.76q20.44,0,35.23,5.29t24.39,14.25a55.9,55.9,0,0,1,14.16,20.71,67.32,67.32,0,0,1,4.57,24.65q0,18.46-9.41,36.85a164.85,164.85,0,0,1-25.28,35.77,273.73,273.73,0,0,1-36.76,33.26,475.47,475.47,0,0,1-44,29.67L461,421.05l13.63-25.82,25.28,5.2-10,63.83H313.12Z"/><path class="cls-1" d="M623.49,467.85q-23.85,0-41.69-8.07a78,78,0,0,1-29.68-23.13Q540.3,421.59,534.47,400t-5.83-48.5q.17-30.3,8.69-52.62t22.86-36.94a91.78,91.78,0,0,1,33.17-21.78A110.89,110.89,0,0,1,633.17,233q24.21,0,42,7.62a74.23,74.23,0,0,1,29.31,22.14Q716,277.25,721.65,298.5t5.47,48.5q0,30.12-8.25,52.8t-22.41,37.84a91.11,91.11,0,0,1-32.9,22.68A106.44,106.44,0,0,1,623.49,467.85Zm5.2-24q11.12,0,18.64-5.73t12.11-17.31Q664,409.22,666,391.92a365.34,365.34,0,0,0,2-40.62,396.47,396.47,0,0,0-2-42.49q-2-17.93-6.54-29.4t-12.29-17q-7.71-5.46-19-5.47-11.13,0-18.83,5.56t-12.46,16.77q-4.75,11.21-6.9,28.15A316.8,316.8,0,0,0,587.81,347,364.79,364.79,0,0,0,590,389.41q2.14,18.19,7,30.3t12.64,18.11Q617.39,443.82,628.69,443.82Z"/><path class="cls-1" d="M355.31,753.5v-23l41.09-4.7V576.47c-2.29.72-5.34,1.48-9.14,2.26s-7.76,1.54-11.85,2.26-8.12,1.33-12,1.81-7.15.79-9.69.91L349,555.29a134.91,134.91,0,0,0,20.9-6.16,187.9,187.9,0,0,0,20.1-9,195.5,195.5,0,0,0,18.19-10.77A177.32,177.32,0,0,0,423.37,518h.19l29.68,5.25V725.81l38,4.7v23Z"/><path class="cls-1" d="M551.54,804q14.84-29.87,29.77-61.82t28.88-63.45q13.93-31.5,26.6-61.09T660,563.07l-101.55,1.45-13.93,42.54L513,601.45l9.23-79.83H696.89l11.41,13L609.64,819.76Z"/></svg>