<svg id="Layer_1" data-name="Layer 1" xmlns="http://www.w3.org/2000/svg" viewBox="0 0 1358 304"><defs><style>.cls-1{fill:#b0b0b0;}</style></defs><title>logo_wide</title><path class="cls-1" d="M78.34,228V217.08l16.58-2.78V90.5L79,87.82V76.9h55.59V87.82l-17,2.68v53.41h70V90.5l-16.08-2.68V76.9h54.8V87.82L210.48,90.5V214.4l15.89,2.68V228H171.76V217.08l15.89-2.68V156.82h-70V214.4l17,2.68V228Z"/><path class="cls-1" d="M880.54,146.56V134.41h47.92v12.15L913.1,149A70.24,70.24,0,0,1,912,162.5a73,73,0,0,1-3.3,12.34,62.12,62.12,0,0,1-5.15,10.79,51.94,51.94,0,0,1-6.61,8.75,59.32,59.32,0,0,0,10.69,8.12,30.82,30.82,0,0,0,13,3.93v9.34a13.48,13.48,0,0,1-3,1.06,34.33,34.33,0,0,1-3.94.78c-1.36.2-2.7.34-4,.44s-2.42.15-3.26.15a32.37,32.37,0,0,1-6.61-.64,30.85,30.85,0,0,1-5.92-1.89,38.23,38.23,0,0,1-5.94-3.26,64.55,64.55,0,0,1-6.41-4.91,47.36,47.36,0,0,1-9,5.35,59.61,59.61,0,0,1-9.43,3.35,63.81,63.81,0,0,1-8.94,1.7,65.91,65.91,0,0,1-7.48.49A87.93,87.93,0,0,1,825,215.91a51.17,51.17,0,0,1-16.62-7.24,32.88,32.88,0,0,1-10.64-11.86A34.21,34.21,0,0,1,794,180.58a31.54,31.54,0,0,1,2.39-12.49,38.62,38.62,0,0,1,6.31-10.16,54.87,54.87,0,0,1,9-8.31q5.12-3.74,10.45-7a109.27,109.27,0,0,1-6.22-9.28,90.58,90.58,0,0,1-5.34-10.3,68.83,68.83,0,0,1-3.75-10.84,44,44,0,0,1-1.41-10.89,30.86,30.86,0,0,1,2.92-13.22,33.69,33.69,0,0,1,8.12-10.88,39.85,39.85,0,0,1,12.34-7.44,42.7,42.7,0,0,1,15.6-2.77A43.86,43.86,0,0,1,860,69.53a33.45,33.45,0,0,1,10.84,6.37,25.32,25.32,0,0,1,6.37,8.74,24.56,24.56,0,0,1,2.09,9.72,40.92,40.92,0,0,1-2.68,15.46,43.53,43.53,0,0,1-7.09,11.86,65.15,65.15,0,0,1-10.11,9.62q-5.68,4.38-11.71,8.84,3.39,4.29,8.06,9.82t9.63,11.23q4.95,5.69,9.72,10.93t8.36,8.95l4,3.88a40.77,40.77,0,0,0,5-8.5,50.58,50.58,0,0,0,3-9.23,55.3,55.3,0,0,0,1.22-9.38,65.76,65.76,0,0,0-.2-8.85Zm-32.85,59.58a50.38,50.38,0,0,0,5.59-.34,45.61,45.61,0,0,0,6.31-1.16,51.16,51.16,0,0,0,6.52-2.14,34.32,34.32,0,0,0,6.17-3.26q-5-4.76-10.59-10.88t-11.38-12.69q-5.73-6.55-11.17-12.93t-9.92-11.61a51.42,51.42,0,0,0-10.06,12,30.07,30.07,0,0,0-1.94,25.23,25.2,25.2,0,0,0,5.88,9,29.27,29.27,0,0,0,10.1,6.41A39.26,39.26,0,0,0,847.69,206.14ZM826.4,99a37.54,37.54,0,0,0,1.41,10.5,47.39,47.39,0,0,0,3.6,9,52.62,52.62,0,0,0,4.76,7.48q2.58,3.36,4.81,6a102.76,102.76,0,0,0,9-8.41,39.06,39.06,0,0,0,6-8.16,33.62,33.62,0,0,0,3.3-9,53,53,0,0,0,1-10.94,37.53,37.53,0,0,0-.48-5.58,16.88,16.88,0,0,0-2.19-6A13.9,13.9,0,0,0,852.74,79q-3.21-2-8.74-2a14.28,14.28,0,0,0-6.81,1.71,18.27,18.27,0,0,0-5.64,4.66,22.18,22.18,0,0,0-3.79,6.95A26.54,26.54,0,0,0,826.4,99Z"/><path class="cls-1" d="M.36,3.4V300.6a3.4,3.4,0,0,0,3.4,3.4H301a3.41,3.41,0,0,0,3.41-3.4V3.4A3.41,3.41,0,0,0,301,0H3.76A3.4,3.4,0,0,0,.36,3.4ZM54.76,51H250a3.41,3.41,0,0,1,3.41,3.4V249.6A3.41,3.41,0,0,1,250,253H54.76a3.4,3.4,0,0,1-3.4-3.4V54.4A3.4,3.4,0,0,1,54.76,51ZM254.2,41H50.75a3.4,3.4,0,0,1-2.37-1L23.59,15.84A3.41,3.41,0,0,1,26,10H280.16a3.4,3.4,0,0,1,2.32,5.89l-26,24.2A3.43,3.43,0,0,1,254.2,41ZM41.36,48.59V254.52a3.41,3.41,0,0,1-1,2.41L16.17,281.12a3.4,3.4,0,0,1-5.81-2.41V25a3.41,3.41,0,0,1,5.78-2.44L40.33,46.15A3.4,3.4,0,0,1,41.36,48.59ZM49.84,263h205a3.4,3.4,0,0,1,2.44,1l23.59,24.19A3.41,3.41,0,0,1,278.4,294H25.64a3.4,3.4,0,0,1-2.4-5.81L47.43,264A3.4,3.4,0,0,1,49.84,263Zm213.52-8.42V48.86a3.4,3.4,0,0,1,1.08-2.49l24.19-22.54a3.41,3.41,0,0,1,5.73,2.49V279.4a3.4,3.4,0,0,1-5.84,2.37L264.32,257A3.41,3.41,0,0,1,263.36,254.58Z"/><path class="cls-1" d="M346,3.4V300.6a3.4,3.4,0,0,0,3.4,3.4H646.6a3.4,3.4,0,0,0,3.4-3.4V3.4A3.4,3.4,0,0,0,646.6,0H349.4A3.4,3.4,0,0,0,346,3.4ZM400.4,51H595.6a3.4,3.4,0,0,1,3.4,3.4V249.6a3.4,3.4,0,0,1-3.4,3.4H400.4a3.4,3.4,0,0,1-3.4-3.4V54.4A3.4,3.4,0,0,1,400.4,51ZM599.84,41H396.4A3.42,3.42,0,0,1,394,40L369.24,15.84A3.4,3.4,0,0,1,371.61,10H625.8a3.4,3.4,0,0,1,2.32,5.89l-26,24.2A3.43,3.43,0,0,1,599.84,41ZM387,48.59V254.52a3.41,3.41,0,0,1-1,2.41l-24.19,24.19a3.4,3.4,0,0,1-5.81-2.41V25a3.41,3.41,0,0,1,5.78-2.44L386,46.15A3.4,3.4,0,0,1,387,48.59ZM395.48,263h205a3.39,3.39,0,0,1,2.43,1l23.59,24.19a3.4,3.4,0,0,1-2.43,5.78H371.29a3.41,3.41,0,0,1-2.41-5.81L393.07,264A3.41,3.41,0,0,1,395.48,263ZM609,254.58V48.86a3.4,3.4,0,0,1,1.08-2.49l24.2-22.54A3.4,3.4,0,0,1,640,26.32V279.4a3.4,3.4,0,0,1-5.84,2.37L610,257A3.42,3.42,0,0,1,609,254.58Z"/><path class="cls-1" d="M549.52,155.59A35.16,35.16,0,0,0,537,148.66c-1-.33-2-.61-3-.87a3.4,3.4,0,0,1-.92-6.19l.11-.07a34.29,34.29,0,0,0,9.08-8.35,35.67,35.67,0,0,0,5.56-11A44.3,44.3,0,0,0,549.72,109a35,35,0,0,0-2.78-14.35,25.66,25.66,0,0,0-8.84-10.55,43.9,43.9,0,0,0-15.62-6.49,105.19,105.19,0,0,0-23.14-2.2c-2.54,0-5,.09-7.27.25l-7,.49-7.42.49q-3.86.24-8.45.24H445.43a3.4,3.4,0,0,0-3.4,3.4V84.7a3.41,3.41,0,0,0,2.85,3.36l10.31,1.7A3.39,3.39,0,0,1,458,93.11V209.17a3.4,3.4,0,0,1-2.86,3.36l-10.68,1.71a3.4,3.4,0,0,0-2.86,3.36V222a3.4,3.4,0,0,0,3.4,3.4H468.2q5.85,0,10.15.2t7.86.39l6.78.39q3.22.2,6.94.2,17.47,0,29.09-3.86t18.6-10.2a35.31,35.31,0,0,0,9.86-14.65,51.74,51.74,0,0,0,2.88-17.08,35.11,35.11,0,0,0-2.83-14.31A31.2,31.2,0,0,0,549.52,155.59ZM480.3,91.12a3.4,3.4,0,0,1,3-3.38c.82-.1,1.75-.21,2.77-.35A93.75,93.75,0,0,1,497,86.91a54.46,54.46,0,0,1,14.54,1.65,22.31,22.31,0,0,1,9.38,5,18.59,18.59,0,0,1,5,8.3,40.11,40.11,0,0,1,1.52,11.72q0,14.55-6.69,21.62t-21.33,7.08h-9.57c-1.76,0-3.48,0-5.17-.1l-1.18,0a3.4,3.4,0,0,1-3.22-3.4Zm54.14,106.21a22.39,22.39,0,0,1-6.49,9.56,30.61,30.61,0,0,1-11.57,6,61.28,61.28,0,0,1-17.23,2.1c-1.63,0-3.4,0-5.33-.05s-3.76-.1-5.51-.2a47.31,47.31,0,0,1-4.78-.48l-.43-.08a3.41,3.41,0,0,1-2.8-3.35v-52.7a3.39,3.39,0,0,1,3.31-3.4l1.18,0c1.76,0,3.62-.05,5.57-.05h11.42a63.87,63.87,0,0,1,15.92,1.71,26.5,26.5,0,0,1,10.74,5.32,20.6,20.6,0,0,1,6.09,9.28,42.41,42.41,0,0,1,1.91,13.57A38.36,38.36,0,0,1,534.44,197.33Z"/><path class="cls-1" d="M698.62,3.65V300.84a3.41,3.41,0,0,0,3.4,3.41H999.21a3.41,3.41,0,0,0,3.41-3.41V3.65a3.41,3.41,0,0,0-3.41-3.4H702A3.4,3.4,0,0,0,698.62,3.65ZM753,51.25H948.21a3.41,3.41,0,0,1,3.41,3.4V249.84a3.41,3.41,0,0,1-3.41,3.41H753a3.41,3.41,0,0,1-3.4-3.41V54.65A3.4,3.4,0,0,1,753,51.25Zm199.43-10H749a3.38,3.38,0,0,1-2.37-1l-24.79-24.2a3.4,3.4,0,0,1,2.38-5.83H978.42a3.4,3.4,0,0,1,2.32,5.89l-26,24.19A3.38,3.38,0,0,1,952.45,41.25ZM739.62,48.83V254.77a3.39,3.39,0,0,1-1,2.4l-24.2,24.2a3.4,3.4,0,0,1-5.8-2.41V25.22a3.4,3.4,0,0,1,5.78-2.44L738.59,46.4A3.39,3.39,0,0,1,739.62,48.83Zm8.48,214.42h205a3.43,3.43,0,0,1,2.44,1l23.59,24.2a3.41,3.41,0,0,1-2.44,5.78H723.9a3.4,3.4,0,0,1-2.4-5.81l24.19-24.2A3.39,3.39,0,0,1,748.1,263.25Zm213.52-8.42V49.11a3.39,3.39,0,0,1,1.08-2.49l24.19-22.55a3.41,3.41,0,0,1,5.73,2.49V279.64a3.41,3.41,0,0,1-5.84,2.38l-24.2-24.82A3.39,3.39,0,0,1,961.62,254.83Z"/><path class="cls-1" d="M1053.56,3.39V300.58A3.41,3.41,0,0,0,1057,304h297.19a3.4,3.4,0,0,0,3.4-3.4V3.39a3.41,3.41,0,0,0-3.4-3.41H1057A3.41,3.41,0,0,0,1053.56,3.39ZM1108,51h195.19a3.41,3.41,0,0,1,3.4,3.41V249.58a3.4,3.4,0,0,1-3.4,3.4H1108a3.41,3.41,0,0,1-3.41-3.4V54.39A3.41,3.41,0,0,1,1108,51ZM1307.4,41H1104a3.41,3.41,0,0,1-2.38-1l-24.78-24.2a3.4,3.4,0,0,1,2.38-5.84h254.19a3.41,3.41,0,0,1,2.32,5.9l-26,24.19A3.39,3.39,0,0,1,1307.4,41Zm-212.84,7.59V254.5a3.43,3.43,0,0,1-1,2.41l-24.2,24.19a3.4,3.4,0,0,1-5.81-2.4V25a3.4,3.4,0,0,1,5.78-2.43l24.2,23.62A3.4,3.4,0,0,1,1094.56,48.57ZM1103,263h205a3.4,3.4,0,0,1,2.44,1L1334,288.2a3.4,3.4,0,0,1-2.43,5.78H1078.85a3.41,3.41,0,0,1-2.41-5.81l24.2-24.19A3.37,3.37,0,0,1,1103,263Zm213.52-8.42V48.84a3.39,3.39,0,0,1,1.09-2.49l24.19-22.54a3.4,3.4,0,0,1,5.72,2.49V279.38a3.4,3.4,0,0,1-5.84,2.37l-24.19-24.81A3.42,3.42,0,0,1,1316.56,254.56Z"/><path class="cls-1" d="M1257.09,155.57a35.52,35.52,0,0,0-12.5-6.93c-1-.32-2-.61-3-.86a3.4,3.4,0,0,1-.92-6.2l.11-.07a34.42,34.42,0,0,0,9.08-8.34,35.84,35.84,0,0,0,5.56-11,44,44,0,0,0,1.91-13.18,35.06,35.06,0,0,0-2.78-14.35,25.63,25.63,0,0,0-8.84-10.54,43.73,43.73,0,0,0-15.62-6.5,105.24,105.24,0,0,0-23.14-2.19c-2.53,0-5,.08-7.27.24l-7,.49-7.42.49q-3.86.24-8.45.24H1153a3.41,3.41,0,0,0-3.41,3.41v4.44a3.41,3.41,0,0,0,2.85,3.36l10.31,1.7a3.4,3.4,0,0,1,2.85,3.36V209.15a3.4,3.4,0,0,1-2.86,3.36l-10.67,1.72a3.41,3.41,0,0,0-2.87,3.36V222a3.41,3.41,0,0,0,3.41,3.41h23.15c3.9,0,7.29.06,10.15.19s5.49.26,7.86.39l6.79.39q3.21.19,6.93.2,17.48,0,29.09-3.86t18.6-10.2a35.24,35.24,0,0,0,9.86-14.65,51.7,51.7,0,0,0,2.88-17.08,34.9,34.9,0,0,0-2.83-14.3A31.34,31.34,0,0,0,1257.09,155.57ZM1187.86,91.1a3.4,3.4,0,0,1,3-3.38l2.78-.34a91,91,0,0,1,10.93-.49,54.14,54.14,0,0,1,14.55,1.66,22.27,22.27,0,0,1,9.37,5,18.65,18.65,0,0,1,5,8.3,40.4,40.4,0,0,1,1.51,11.71q0,14.55-6.69,21.63T1207,142.25h-9.57c-1.76,0-3.48,0-5.17-.1l-1.18-.05a3.4,3.4,0,0,1-3.22-3.4ZM1242,197.31a22.39,22.39,0,0,1-6.49,9.57,30.74,30.74,0,0,1-11.57,6,61.23,61.23,0,0,1-17.23,2.1c-1.63,0-3.4,0-5.32,0s-3.76-.1-5.52-.19a47.14,47.14,0,0,1-4.78-.49l-.43-.07a3.42,3.42,0,0,1-2.8-3.36v-52.7a3.4,3.4,0,0,1,3.31-3.4l1.18,0c1.76,0,3.62-.05,5.57-.05h11.42a64.29,64.29,0,0,1,15.92,1.71,26.56,26.56,0,0,1,10.74,5.32,20.61,20.61,0,0,1,6.1,9.28,42.76,42.76,0,0,1,1.9,13.57A38.07,38.07,0,0,1,1242,197.31Z"/></svg>